<svg xmlns="http://www.w3.org/2000/svg" viewBox="0 0 1134 976" role="img" aria-label="中国省级制霸地图">
  <rect id="map-bg" x="0" y="0" width="1134" height="976" fill="#B4CDEA"/>
  <text id="title" x="48" y="52">中国制霸</text>
  <g id="regions">
    <path id="黑龙江" d="M776.5,249.7L782.2,248.2L782.8,260.6L788.7,268.5L807.6,266.7L812.2,275.1L826.4,275.9L827.6,289.4L835.1,289.2L838.4,301.2L847.1,290.6L854.5,314.0L876.4,301.9L877.1,311.3L887.9,316.7L890.3,301.8L885.2,282.6L898.8,270.8L917.2,276.0L917.3,268.7L928.6,249.0L932.5,223.3L941.4,214.0L938.0,207.6L939.9,201.1L946.0,196.7L917.1,204.0L908.7,213.9L886.2,214.5L880.8,204.7L883.5,200.1L879.0,192.5L881.1,186.1L874.5,186.4L864.0,173.1L838.9,169.0L834.7,163.5L835.8,153.6L825.8,133.9L820.4,108.2L806.5,85.5L775.7,74.1L748.9,78.1L746.0,79.4L750.7,86.0L741.3,97.1L751.0,104.7L755.9,99.1L765.0,105.4L762.6,109.8L768.1,127.9L788.8,128.9L799.4,119.6L813.1,134.3L801.3,156.8L800.7,178.7L794.7,180.5L790.6,203.7L786.6,194.4L759.5,222.7L768.5,237.9L773.6,235.0L772.5,231.1L777.0,233.7L777.0,238.6L768.1,241.3L770.7,249.1Z"/>
    <path id="甘肃" d="M525.5,500.8L523.4,512.7L516.5,508.5L518.7,506.5L508.9,499.4L510.9,491.0L505.7,470.7L479.9,449.9L480.0,436.9L491.5,422.9L489.9,412.6L474.0,420.3L457.8,420.0L460.3,425.3L455.9,430.8L444.0,423.9L442.2,413.0L421.5,401.5L432.3,392.1L431.4,377.8L405.4,385.1L405.2,376.7L394.9,364.2L398.1,359.1L388.2,331.8L372.5,336.4L371.7,352.4L349.4,362.7L338.0,382.8L325.7,385.0L321.5,410.4L317.1,417.0L318.1,421.7L328.5,418.4L329.4,424.5L347.0,428.3L349.8,438.2L366.6,437.0L374.8,443.1L386.5,432.4L385.1,417.9L401.7,427.8L412.4,420.6L431.6,441.1L430.1,434.4L447.5,450.3L459.2,453.2L468.6,468.2L465.8,471.3L474.9,489.3L473.1,498.6L458.0,521.5L463.0,533.9L458.5,539.8L443.8,533.2L441.0,538.1L446.9,550.5L457.5,552.5L457.2,563.8L466.0,555.6L461.2,543.2L472.6,534.9L476.3,547.0L491.2,552.0L494.8,558.5L492.9,570.3L507.7,574.5L509.4,568.2L516.8,566.5L513.8,557.1L517.6,551.6L526.6,552.5L524.1,544.6L528.6,533.5L522.6,528.5L526.0,516.4L536.4,521.3L545.1,518.9L543.7,511.0L556.0,511.4L554.8,497.5L557.9,491.2L556.5,484.1L535.4,467.1L527.1,467.3L527.5,477.2L523.5,481.3L532.1,492.3L531.2,500.2Z"/>
    <path id="吉林" d="M865.2,340.9L870.4,326.6L875.1,329.5L874.8,333.8L880.5,340.6L877.0,333.3L887.9,328.4L890.4,314.9L883.8,316.4L877.1,311.3L876.4,301.9L872.2,306.9L870.3,302.3L860.1,307.3L859.7,312.7L854.5,314.0L847.1,290.6L842.4,294.6L843.0,299.8L838.4,301.2L834.1,293.1L835.1,289.2L827.6,289.4L826.4,275.9L812.2,275.1L807.6,266.7L788.7,268.5L782.8,260.6L781.3,247.8L765.0,253.3L764.3,262.1L751.1,254.5L748.1,261.0L752.9,262.4L756.9,272.4L754.1,281.1L757.4,296.8L769.9,290.8L775.7,309.9L772.6,313.7L774.3,317.1L780.7,315.9L786.9,321.3L789.7,330.6L795.8,323.7L795.6,331.9L802.0,347.3L804.7,347.6L801.8,351.8L802.2,358.6L809.1,370.8L806.1,377.4L812.8,376.5L820.1,366.0L821.2,358.8L825.9,355.3L830.6,363.1L843.3,366.1L846.3,361.0L842.1,350.8L855.6,350.2L861.8,339.8Z"/>
    <path id="内蒙古" d="M388.2,331.8L398.1,359.1L394.9,364.2L405.2,376.7L405.4,385.1L431.4,377.8L432.3,392.1L421.5,401.5L442.2,413.0L444.0,423.9L455.9,430.8L460.3,425.3L457.8,420.0L474.0,420.3L489.9,412.6L491.5,422.9L480.0,436.9L479.2,445.7L491.3,460.8L514.5,451.4L517.6,424.8L526.9,413.7L532.3,422.0L525.1,439.0L547.8,455.0L558.9,454.2L562.9,436.2L575.4,416.2L580.1,415.9L579.1,411.8L586.1,416.3L593.6,408.6L592.9,413.7L596.5,412.6L598.9,406.8L605.4,407.7L610.8,392.6L636.6,386.1L633.8,364.9L639.1,362.5L643.9,347.7L648.4,348.5L648.4,360.4L653.4,361.1L662.7,352.3L666.6,356.2L676.8,351.4L678.7,341.2L691.3,336.0L698.9,349.5L696.5,357.2L700.1,367.3L712.2,368.0L715.4,361.2L712.7,346.0L716.6,341.5L725.4,358.1L730.8,348.3L752.5,334.4L776.5,326.8L778.4,318.0L772.7,315.1L776.0,311.7L773.8,299.1L769.9,290.8L757.4,296.8L754.1,281.1L756.9,272.4L748.1,261.0L751.1,254.5L764.3,262.1L765.0,253.3L770.7,249.1L768.1,241.3L777.0,238.6L772.5,231.1L773.6,235.0L768.1,237.6L759.5,222.7L786.6,194.4L790.6,203.7L794.7,180.5L800.7,178.7L801.3,156.8L813.1,134.3L799.4,119.6L788.8,128.9L768.1,127.9L762.6,109.8L765.0,105.4L755.9,99.1L749.2,103.8L741.3,97.1L750.2,87.0L748.7,81.7L736.0,81.0L724.4,92.9L725.1,97.4L734.8,98.6L735.5,107.6L725.2,119.1L711.1,150.0L714.4,155.3L691.7,170.8L675.7,163.0L662.5,201.0L658.2,203.5L664.2,214.8L676.8,209.6L685.5,215.8L691.8,206.8L702.9,207.4L719.8,226.5L722.7,239.0L686.0,241.1L685.3,246.5L673.7,248.1L667.7,262.5L643.8,269.7L630.3,285.1L604.9,277.8L597.7,294.4L605.6,310.3L570.2,339.5L539.6,339.9L503.5,360.8L496.3,358.9L496.4,353.8L480.0,353.7L442.5,334.8Z"/>
    <path id="山东" d="M670.6,527.1L671.7,520.9L676.7,519.0L682.3,532.0L693.8,526.1L697.2,533.3L700.1,532.4L701.3,526.7L706.1,525.1L707.2,517.8L714.7,516.6L719.0,504.3L728.4,495.2L726.6,489.6L729.3,489.8L728.2,493.4L734.4,491.5L734.2,485.2L738.2,483.3L736.4,479.7L747.0,474.6L748.2,477.2L753.5,471.5L761.2,472.9L760.5,467.5L763.9,461.2L755.6,457.2L747.1,460.0L734.7,450.6L727.3,453.9L720.1,467.3L714.1,467.8L708.4,457.9L713.1,454.7L713.5,449.7L711.6,450.9L707.9,443.3L702.7,445.3L693.0,439.4L686.3,450.1L677.0,450.2L671.5,459.2L670.1,456.6L668.6,461.9L664.8,462.5L660.5,475.1L655.6,479.5L654.4,482.6L657.5,491.5L655.3,499.4L666.6,491.8L647.7,517.2L653.6,519.4L658.5,528.8Z"/>
    <path id="河北" d="M686.7,383.2L683.1,389.9L691.2,397.3L687.4,400.0L689.2,408.2L693.6,408.9L691.7,414.2L701.8,424.8L703.0,419.5L708.2,419.7L713.3,414.0L717.2,401.4L722.1,399.7L717.5,385.6L713.0,385.7L707.0,379.0L712.8,367.3L699.7,366.6L696.5,357.2L699.5,354.5L698.9,349.5L696.2,350.0L691.6,336.2L678.7,341.2L676.8,351.4L669.7,350.9L666.6,356.2L662.7,352.3L656.0,360.3L648.4,360.4L647.4,347.3L643.2,348.2L638.6,355.9L639.1,362.5L634.7,363.1L635.9,369.2L633.0,372.4L640.3,389.8L643.5,390.5L634.4,398.4L641.5,401.9L644.1,408.9L640.8,420.9L634.2,421.0L633.3,428.4L629.3,433.2L629.0,440.1L633.2,442.6L637.7,454.4L632.4,466.9L632.4,474.0L627.8,477.5L629.6,483.5L644.4,491.7L655.8,492.1L657.4,488.5L654.4,482.6L660.5,475.1L664.8,462.5L668.6,461.9L670.1,456.6L671.5,459.2L677.0,450.2L686.3,450.1L691.2,443.4L693.9,437.6L691.3,437.7L689.2,431.6L683.5,433.3L676.1,428.5L676.2,421.8L678.5,420.0L677.1,407.9L671.5,412.1L668.0,408.6L661.5,410.3L656.9,404.7L658.7,403.1L657.1,398.0L664.7,392.4L661.5,385.8L671.8,380.4L670.1,376.5L674.2,373.5L679.3,381.7Z M682.9,396.8L676.6,397.9L678.2,406.2L682.4,407.2Z"/>
    <path id="西藏" d="M278.4,492.3L260.2,482.9L244.8,484.3L227.9,490.4L218.1,502.8L209.9,500.4L196.8,509.8L181.6,508.9L179.2,502.5L171.9,501.3L160.4,512.8L141.9,507.7L132.7,530.9L121.4,532.3L115.9,540.3L125.4,576.0L120.4,582.3L117.1,573.4L112.0,577.6L117.4,591.5L117.3,605.7L152.2,637.8L156.4,628.1L166.5,629.9L167.6,636.5L183.6,648.4L188.5,657.9L196.1,655.2L201.5,668.4L211.0,669.8L210.8,677.8L219.7,677.1L223.9,688.2L226.6,682.0L229.9,688.3L234.1,683.6L241.9,690.5L264.5,684.4L267.7,705.0L271.5,690.9L279.6,680.3L297.8,689.4L304.2,686.0L306.0,697.0L313.0,700.6L313.7,713.4L338.8,709.4L345.6,696.0L368.5,679.0L387.1,692.2L391.3,688.8L394.0,673.1L402.4,682.6L404.8,676.8L406.1,683.3L410.8,680.5L409.5,663.1L414.7,666.1L416.1,639.8L414.4,619.8L409.2,609.6L413.4,605.2L403.6,582.1L390.9,576.8L390.2,588.4L381.6,589.9L382.4,598.0L373.7,592.6L373.2,599.8L370.7,594.6L363.7,596.2L362.7,586.5L357.4,583.6L359.4,580.8L350.5,574.1L334.4,578.9L288.6,560.1L277.3,541.2L280.7,523.0L274.6,513.1L279.8,498.1L273.9,494.1Z"/>
    <path id="新疆" d="M376.6,333.4L361.0,302.3L362.3,295.8L352.1,294.8L334.3,279.8L295.6,274.4L292.6,265.1L297.8,254.5L298.2,237.9L288.3,215.7L252.9,193.4L250.6,179.1L236.9,180.1L232.4,194.3L217.8,202.6L217.2,229.7L208.5,234.5L180.1,226.0L168.9,264.2L173.3,274.1L161.9,269.8L133.9,281.2L141.5,287.9L147.4,322.6L141.1,326.1L144.4,329.4L139.4,331.0L137.7,350.0L108.6,365.6L102.9,374.2L89.8,374.1L81.6,390.5L72.5,392.0L70.8,382.9L59.7,386.2L60.7,390.6L47.7,396.7L45.4,411.1L40.0,413.5L45.0,422.5L44.4,432.0L60.0,435.0L60.4,454.6L64.1,462.0L54.7,468.8L74.8,478.5L79.1,498.7L84.9,496.3L94.3,506.0L108.2,506.6L109.3,525.2L119.4,533.9L132.7,530.9L141.9,507.7L160.4,512.8L171.9,501.3L179.2,502.5L181.6,508.9L196.8,509.8L209.9,500.4L218.1,502.8L226.6,491.4L243.9,484.4L260.2,482.9L295.2,494.1L299.2,491.7L293.4,474.7L301.5,466.6L290.3,453.1L290.5,438.9L286.8,440.9L284.3,435.2L318.2,422.4L325.7,385.0L338.0,382.8L349.4,362.7L371.7,352.4L373.5,345.6L370.6,340.4Z"/>
    <path id="河南" d="M616.8,581.7L624.1,579.9L627.3,583.8L631.8,580.4L633.6,594.0L644.3,596.0L643.9,600.8L647.9,603.2L652.8,599.7L654.8,605.0L657.7,598.1L663.4,595.6L663.8,576.7L659.6,580.6L653.4,576.1L653.3,569.8L648.7,566.5L649.0,563.2L654.9,562.7L655.5,554.3L659.8,552.3L659.3,541.7L664.5,542.2L669.0,548.8L674.6,544.8L673.7,536.0L670.6,536.0L666.6,527.9L658.0,528.4L653.6,519.4L647.7,517.2L666.6,491.8L655.8,499.8L657.2,490.4L649.1,493.2L631.7,485.8L630.2,503.3L622.8,510.5L607.1,511.7L607.2,517.1L600.0,522.2L582.4,528.0L583.3,536.6L586.3,538.5L585.5,545.1L591.6,552.5L591.3,560.2L595.3,569.1L608.6,581.2Z"/>
    <path id="安徽" d="M673.9,542.0L674.4,545.1L667.4,549.3L664.5,542.2L660.1,540.9L659.8,552.3L655.5,554.3L654.7,563.2L649.0,563.2L648.7,566.5L653.3,569.8L653.4,576.1L659.6,580.6L663.8,576.7L663.9,594.7L657.7,598.1L655.9,605.8L666.0,613.9L661.6,621.7L667.1,642.5L674.9,636.3L678.4,639.4L675.7,648.6L681.5,645.0L683.0,639.9L687.8,648.0L699.2,652.0L707.7,639.6L707.5,630.6L715.2,629.2L712.8,623.6L715.8,622.6L718.6,613.7L714.4,607.0L706.2,608.7L707.2,599.3L699.9,591.9L704.9,582.4L702.9,576.2L710.5,579.4L712.0,570.5L707.0,567.4L705.7,572.6L700.1,573.0L697.7,561.7L693.7,560.9L696.9,548.7L690.9,549.3L689.1,541.7L682.7,540.7L679.4,533.1L671.4,526.8L668.0,528.6L668.3,533.2L673.7,536.0Z"/>
    <path id="山西" d="M582.4,528.0L600.0,522.2L607.2,517.1L607.1,511.7L617.6,513.5L630.2,503.3L631.7,485.8L627.8,477.5L632.4,474.0L632.4,466.9L637.7,454.4L633.2,442.6L629.0,440.1L629.3,433.2L633.3,428.4L634.2,421.0L640.8,420.9L644.1,408.9L641.5,401.9L634.4,398.4L643.5,390.5L640.3,389.8L637.7,381.1L636.6,386.1L629.2,390.4L621.5,389.9L617.2,394.7L610.8,392.6L605.4,407.7L598.9,406.8L593.7,412.9L595.2,415.4L591.3,423.4L589.7,435.7L584.3,442.0L588.6,457.2L582.5,470.0L585.8,503.3L580.3,521.3Z"/>
    <path id="湖北" d="M592.2,562.2L571.3,559.7L568.6,562.7L579.2,571.9L579.9,575.1L577.1,577.2L571.4,575.9L569.4,583.1L570.8,596.8L578.6,604.4L579.8,610.4L578.1,619.0L575.3,616.6L567.4,626.5L562.8,622.4L553.7,626.4L556.0,632.0L552.9,641.9L554.9,645.1L557.1,641.6L564.2,658.0L566.2,659.2L568.5,649.4L573.6,643.9L585.1,645.0L584.2,636.8L589.4,635.1L603.5,640.5L610.6,649.7L619.5,643.1L621.4,643.6L620.3,650.8L623.1,651.3L629.4,641.8L632.1,651.4L630.0,656.1L634.2,661.4L640.2,653.3L652.7,649.9L652.1,645.7L654.6,647.3L657.9,642.0L667.1,642.5L661.6,621.7L666.2,615.2L663.2,610.7L659.0,610.8L652.8,599.7L647.9,603.2L643.9,600.8L644.3,596.0L635.5,596.2L632.1,590.5L631.8,580.4L627.3,583.8L624.1,579.9L611.1,582.6L600.1,576.1Z"/>
    <path id="青海" d="M471.4,485.7L465.8,471.3L468.0,466.4L459.2,453.2L447.5,450.3L430.1,434.4L431.6,441.1L412.4,420.6L401.7,427.8L385.1,417.9L386.5,432.4L374.8,443.1L366.6,437.0L349.8,438.2L347.0,428.3L329.4,424.5L328.5,418.4L284.6,434.8L286.8,440.9L290.5,438.9L290.3,453.1L301.5,466.6L293.1,478.7L297.9,481.8L299.2,491.7L282.7,487.8L281.8,492.9L273.9,494.1L279.8,498.1L274.6,513.1L280.7,523.0L277.3,541.2L288.0,559.6L334.4,578.9L350.5,574.1L359.4,580.8L357.4,583.6L362.7,586.5L363.7,596.2L370.7,594.6L374.0,599.9L373.7,592.6L382.4,598.0L381.6,589.9L390.2,588.4L390.5,577.3L396.4,577.6L390.8,568.8L396.7,556.5L391.1,546.2L397.6,537.4L406.2,540.3L411.5,559.7L419.0,569.2L425.6,572.7L428.0,565.2L432.8,575.7L446.8,574.4L446.3,561.0L453.8,563.9L455.9,553.5L446.9,550.5L441.9,534.8L455.3,540.5L463.0,533.9L458.0,521.5L465.1,514.1L463.5,508.3L471.1,505.0L469.3,499.9L474.9,489.3Z"/>
    <path id="辽宁" d="M775.9,403.8L785.0,404.8L793.7,389.8L807.6,380.3L806.2,376.4L809.1,370.8L801.8,355.1L804.7,347.6L802.0,347.3L795.6,331.9L795.8,323.7L789.7,330.6L786.9,321.3L779.8,315.2L776.5,326.8L771.9,327.1L771.4,330.9L752.5,334.4L748.9,340.3L744.3,339.5L730.8,348.3L725.4,358.1L721.6,345.7L716.6,341.5L712.7,346.0L714.9,348.7L715.1,363.5L707.0,379.0L713.0,385.7L717.5,385.6L721.8,399.0L731.2,393.9L740.5,377.9L750.7,377.3L757.0,386.3L753.3,395.7L742.0,409.4L742.6,413.7L749.3,413.9L748.0,420.8L740.0,424.5L740.7,429.3L749.1,425.7L748.5,422.4L752.2,423.4L759.4,412.8Z"/>
    <path id="广东" d="M629.2,824.6L631.0,812.3L634.1,819.1L641.3,815.3L643.1,819.2L646.1,810.8L648.7,816.8L653.2,810.1L658.9,814.1L660.0,808.9L662.6,812.1L672.5,807.4L678.2,793.7L682.7,792.3L677.1,766.1L672.9,767.3L670.9,760.8L663.5,759.4L661.5,763.9L662.8,768.3L656.5,762.8L642.0,770.1L638.2,765.3L646.5,754.9L643.7,747.9L636.3,751.8L635.7,747.2L629.6,750.5L624.3,745.6L618.8,749.8L621.5,753.1L619.1,760.3L616.0,754.7L609.0,753.5L608.7,761.2L605.4,765.4L607.2,773.7L604.5,776.3L605.4,782.1L597.4,794.5L596.8,808.4L587.9,816.3L586.8,825.5L582.0,825.0L582.6,832.2L576.9,832.5L573.1,838.9L575.5,843.3L571.8,855.3L575.5,871.9L584.8,867.5L582.6,858.0L579.6,856.2L583.1,849.0L605.9,839.2L608.3,834.6L620.0,833.5L622.3,826.6L624.9,832.7Z M584.5,851.7L579.8,855.1L584.7,855.5Z M676.4,859.1L677.8,863.5L678.7,860.2Z M618.8,835.9L616.7,837.3L617.7,840.1Z"/>
    <path id="江苏" d="M684.4,528.9L682.3,532.0L676.7,519.0L670.5,524.4L679.4,533.1L681.7,539.9L689.1,541.7L690.9,549.3L696.9,548.7L693.7,560.9L697.7,561.7L700.1,573.0L705.7,572.6L707.0,567.4L712.0,570.5L710.5,579.4L702.9,576.2L704.9,582.4L700.3,588.4L701.6,595.6L707.2,599.3L706.2,608.7L722.8,610.1L731.4,620.0L744.1,601.0L741.6,594.2L753.0,599.4L751.3,591.3L745.4,586.0L744.9,579.9L738.1,575.6L736.2,559.7L728.5,535.0L712.7,523.2L713.5,515.7L707.2,517.8L706.1,525.1L701.3,526.7L700.1,532.4L697.2,533.3L693.8,526.1L688.5,531.3Z"/>
    <path id="江西" d="M697.4,652.6L694.6,648.2L687.8,648.0L683.0,639.9L681.5,645.0L675.7,648.6L674.7,645.4L678.4,639.4L674.9,636.3L669.2,643.2L657.9,642.0L654.6,647.3L652.1,645.7L652.7,649.9L640.2,653.3L635.0,659.9L639.4,678.4L632.0,687.6L629.5,696.9L630.1,701.7L633.8,700.7L633.6,718.0L637.3,720.3L635.1,730.3L639.2,730.3L635.8,733.5L634.9,747.3L636.3,751.8L643.7,747.9L646.6,751.3L638.5,766.1L642.0,770.1L656.5,762.8L662.8,768.3L663.0,752.8L674.5,722.5L673.2,713.8L682.4,703.0L679.9,695.0L687.5,686.4L690.7,690.8L699.8,683.8L701.6,678.2L699.9,666.5L695.1,659.6Z"/>
    <path id="浙江" d="M700.9,679.1L706.3,680.3L707.9,698.9L713.2,699.9L718.2,693.8L720.5,702.6L727.8,699.6L732.0,706.2L735.4,691.4L741.5,690.3L738.5,687.2L739.5,683.7L742.5,685.2L745.9,678.8L747.9,680.0L746.6,670.3L750.1,665.3L747.6,658.0L752.9,660.8L753.4,648.1L750.9,646.4L755.4,640.5L749.3,638.3L740.0,625.8L742.7,620.8L738.5,618.1L738.5,613.9L731.4,620.0L730.4,616.1L719.2,610.2L715.8,622.6L712.8,623.6L715.2,629.2L707.5,630.6L705.5,644.4L695.2,657.0L700.8,669.7Z M755.8,638.4L758.4,637.7L752.4,634.3Z M755.8,630.2L754.2,631.2L756.8,632.5Z"/>
    <path id="福建" d="M709.3,758.6L708.0,751.7L711.0,757.5L711.2,752.5L714.8,751.9L712.5,746.6L718.0,749.8L722.0,747.0L720.8,741.9L719.2,746.5L716.3,742.7L719.9,733.6L718.1,729.9L723.3,725.5L717.7,719.0L723.1,715.1L724.9,715.5L721.4,721.4L726.0,718.6L724.8,713.2L730.3,703.8L727.8,699.6L720.5,702.6L718.2,693.8L713.2,699.9L707.9,698.9L705.1,678.6L700.8,679.0L699.8,683.8L690.7,690.8L687.5,686.4L683.9,689.1L679.9,695.0L682.4,703.0L680.6,707.6L673.2,713.8L674.0,725.0L667.1,737.3L663.2,758.8L670.9,760.8L672.9,767.3L677.1,766.1L679.6,785.2L684.3,792.6L696.9,775.3L696.3,768.1L703.6,769.3L706.1,763.2L704.1,761.6Z"/>
    <path id="陕西" d="M582.4,528.0L580.3,521.3L585.8,503.3L582.5,470.0L588.6,457.2L584.3,442.0L590.2,434.1L591.3,423.4L595.2,415.4L592.5,413.1L593.6,408.6L587.2,416.1L579.1,411.8L580.1,415.9L575.4,416.2L575.7,420.1L562.9,436.2L561.2,441.6L563.2,446.1L561.2,448.5L559.2,445.5L558.9,454.2L549.4,455.7L542.8,449.3L537.3,455.9L537.3,472.6L557.0,485.3L557.6,494.0L554.8,497.5L556.5,510.6L543.7,511.0L542.3,512.6L545.4,518.5L540.4,520.6L526.0,516.4L526.5,523.9L522.6,528.5L528.6,533.5L525.8,535.4L524.1,544.6L526.6,552.5L517.6,551.6L513.8,557.1L517.5,561.4L516.8,566.5L510.6,569.3L512.1,573.5L518.7,569.6L524.2,575.5L533.7,573.3L536.6,580.6L539.1,577.6L547.1,586.8L554.4,583.8L566.3,597.0L570.8,596.8L569.4,583.1L571.4,575.9L579.9,575.1L578.4,570.3L573.8,569.1L573.8,564.7L568.6,562.7L569.7,560.6L584.8,560.2L587.2,564.0L591.9,558.4L591.6,552.5L585.5,545.1L586.3,538.5L583.3,536.6Z"/>
    <path id="湖南" d="M606.6,764.1L609.0,753.5L616.0,754.7L619.1,760.3L621.5,753.1L618.8,749.8L624.6,745.5L629.6,750.5L634.9,747.3L635.8,733.5L639.2,730.3L635.1,730.3L637.3,720.3L633.6,718.0L633.8,700.7L630.1,701.7L629.5,696.9L632.0,687.6L639.4,678.4L637.0,672.7L638.0,666.2L631.2,660.2L631.9,648.2L629.0,645.9L629.4,641.8L622.1,651.6L619.7,647.6L621.4,643.6L610.6,649.7L602.7,640.0L584.2,636.8L585.1,645.0L574.9,643.5L568.5,649.4L565.0,670.8L568.9,696.4L559.1,707.9L569.1,706.7L568.6,712.5L570.9,715.8L566.3,717.2L568.1,721.1L566.1,726.1L569.0,726.4L568.8,732.6L572.9,734.1L572.2,736.8L576.4,729.2L580.6,734.8L585.9,725.9L595.7,727.4L594.4,735.0L598.7,737.3L591.1,758.4L595.6,754.2L598.4,757.3L598.2,765.8Z"/>
    <path id="广西" d="M569.2,733.2L567.2,740.3L560.6,740.7L563.3,740.6L562.5,745.6L557.6,742.9L556.6,750.5L552.6,745.0L549.1,752.8L543.9,754.9L542.4,750.3L539.7,752.7L535.8,743.3L532.2,747.4L532.4,752.3L520.2,758.9L518.4,766.6L506.4,758.0L499.3,767.0L496.4,764.3L496.3,769.0L499.0,774.1L499.9,770.8L504.9,771.9L507.1,780.3L518.8,779.6L520.1,792.1L512.7,796.0L511.8,804.1L530.4,810.4L526.3,818.8L528.3,830.6L532.7,830.9L538.4,839.4L545.4,838.0L550.8,841.9L556.7,837.3L564.2,840.0L564.2,844.3L571.2,840.3L573.7,842.7L576.0,833.4L582.6,832.2L582.0,825.0L586.8,825.5L587.9,816.3L596.8,808.4L597.4,794.5L605.0,783.1L604.5,776.3L607.1,772.5L606.6,764.1L597.9,765.3L597.1,754.8L591.1,758.4L598.7,737.3L594.4,735.0L595.7,727.4L585.9,725.9L580.6,734.8L576.4,729.2L573.6,737.1Z"/>
    <path id="贵州" d="M566.2,674.2L563.4,681.6L558.8,680.9L557.9,674.0L556.0,677.8L556.8,671.1L552.3,669.8L551.9,660.2L545.5,663.0L543.8,657.3L539.2,657.2L538.4,665.7L533.0,664.9L528.4,675.2L525.0,666.1L523.6,674.5L517.5,667.8L512.5,673.6L516.5,683.2L521.9,684.4L521.6,691.6L508.5,692.0L506.0,701.2L501.4,703.0L493.9,698.8L491.1,703.7L487.6,699.3L482.7,708.5L485.3,711.1L485.1,719.9L489.6,721.6L494.8,716.9L498.7,724.9L493.2,742.3L500.8,752.2L496.4,764.3L499.3,767.0L506.4,758.0L518.4,766.6L520.2,758.9L532.4,752.3L532.2,747.4L535.8,743.3L539.7,752.7L542.4,750.3L545.1,755.1L549.1,752.8L552.0,745.3L556.6,750.5L557.6,742.9L562.5,745.6L563.3,740.6L560.6,740.7L567.2,740.3L569.7,730.8L569.0,726.4L566.1,726.1L568.1,721.1L566.3,717.2L569.3,715.7L569.8,708.6L559.1,707.9L568.9,696.4Z"/>
    <path id="四川" d="M446.9,705.2L453.7,728.5L460.8,732.3L473.9,725.0L472.2,702.8L486.8,678.5L486.4,670.1L494.9,671.0L493.1,684.8L497.0,689.8L504.2,683.7L507.8,693.1L522.5,690.6L521.1,682.8L512.7,678.3L517.5,667.8L523.6,674.5L521.1,664.4L515.0,663.6L513.5,655.2L508.2,651.5L514.2,640.7L511.2,634.5L515.5,627.7L533.6,637.1L539.8,618.1L545.3,619.2L550.3,602.4L555.5,598.3L551.3,591.0L554.9,584.4L547.1,586.8L539.1,577.6L535.8,580.0L533.7,573.3L524.2,575.5L518.7,569.6L512.1,573.5L510.2,568.0L506.0,575.5L498.1,574.4L492.9,570.3L494.8,558.5L491.2,552.0L476.3,547.0L472.6,534.9L461.2,543.2L466.2,553.3L462.1,561.0L456.6,563.5L456.9,551.9L453.8,563.9L446.3,561.0L446.8,574.4L439.3,577.7L435.6,572.2L431.4,574.9L428.0,565.2L425.6,572.7L419.0,569.2L411.5,559.7L406.2,540.3L395.4,539.3L391.1,546.7L396.7,556.5L390.8,568.8L403.6,582.1L413.4,605.2L409.2,609.6L414.4,619.8L417.5,675.8L420.6,681.7L425.6,665.8L432.4,678.2L430.1,682.5L434.3,692.6L439.8,687.9Z"/>
    <path id="云南" d="M507.8,693.1L504.2,683.7L496.1,688.9L492.3,676.4L494.9,671.0L486.4,670.1L486.8,678.5L472.2,702.8L473.5,725.7L456.8,732.8L439.8,687.9L434.3,692.6L430.1,682.5L432.4,678.2L425.6,665.8L419.6,680.6L414.8,657.2L414.7,666.1L409.5,663.1L410.8,680.5L406.1,683.3L404.8,676.8L402.4,682.6L405.0,697.5L410.7,696.7L410.7,737.4L396.2,755.9L393.4,771.2L396.7,777.9L393.4,783.5L413.2,778.2L410.2,786.6L413.4,800.7L423.3,807.5L417.4,825.9L429.4,828.4L433.2,842.4L446.3,835.1L447.7,848.0L455.7,850.1L454.4,818.3L463.2,819.6L466.7,811.1L474.3,819.1L478.6,810.3L488.1,817.6L490.3,810.3L499.5,809.9L501.6,801.8L508.1,796.4L511.3,801.3L520.1,792.1L518.0,778.9L507.1,780.3L504.9,771.9L497.1,771.6L500.8,752.2L493.2,742.3L498.4,723.5L494.8,716.9L485.9,721.2L482.7,708.5L487.6,699.3L491.1,703.7L493.9,698.8L506.0,701.2Z"/>
    <path id="北京" d="M682.2,374.8L685.2,372.5L675.2,371.0L670.6,365.1L669.4,360.6L668.5,363.2L665.9,363.0L666.3,365.4L663.8,364.5L666.1,369.1L662.1,368.6L660.6,372.4L653.1,376.0L653.4,378.9L657.0,384.2L654.8,387.7L653.5,386.9L647.6,391.2L647.1,393.6L649.7,397.5L647.4,398.5L648.1,402.5L654.1,406.6L655.9,403.9L661.2,404.3L665.5,408.6L664.9,406.1L667.2,404.1L672.0,404.1L674.9,398.7L671.9,395.3L671.8,391.1L676.3,391.2L682.2,388.0L682.9,385.3L679.9,381.1L680.6,379.0L679.6,377.2Z"/>
    <path id="天津" d="M725.0,424.5L721.7,435.0L712.4,442.6L699.7,445.4L687.1,442.6L677.8,435.0L674.4,424.5L677.8,414.1L687.1,406.4L699.7,403.6L712.4,406.4L721.7,414.1Z"/>
    <path id="上海" d="M733.5,616.0L735.3,616.1L735.3,622.1L737.5,621.4L741.2,627.4L749.5,622.7L755.0,624.1L756.0,621.2L755.6,616.0L750.4,606.4L742.6,599.4L737.8,604.0L738.4,607.3L736.7,608.4L737.1,611.3L733.0,612.1Z M755.6,595.9L747.9,593.0L742.2,587.4L737.9,591.1L743.2,598.0L744.4,596.8L752.4,601.9L755.7,601.0Z M752.0,604.6L752.8,606.7L758.1,608.0L758.6,606.3Z M755.0,609.3L756.0,611.2L756.3,609.2Z"/>
    <path id="香港" d="M637.5,813.7L631.5,821.0L637.3,827.1L630.5,830.5L627.9,840.6L635.7,839.3L639.6,828.9L649.9,839.8L650.9,823.8L656.8,825.9L657.4,819.7L653.1,815.8L647.5,820.2L653.9,813.7L649.6,809.9Z"/>
    <path id="澳门" d="M645.8,834.1L643.3,841.7L636.6,847.2L627.4,849.3L618.2,847.2L611.5,841.7L609.0,834.1L611.5,826.5L618.2,820.9L627.4,818.9L636.6,820.9L643.3,826.5Z"/>
    <path id="重庆" d="M523.5,673.4L525.4,673.0L525.0,666.1L527.6,670.5L526.3,674.4L528.4,675.2L529.2,671.5L530.8,671.1L530.1,667.9L532.6,667.4L533.0,664.9L535.8,665.2L536.4,667.8L538.4,665.7L539.2,663.4L538.1,661.9L538.6,657.7L541.1,656.9L541.4,658.5L543.0,658.7L543.8,657.3L545.5,663.0L548.5,660.0L551.9,660.2L553.1,666.8L552.3,669.8L556.8,671.1L556.0,677.8L557.3,678.0L556.9,675.1L557.9,674.0L558.9,675.8L558.3,680.6L563.4,681.6L564.4,676.0L566.9,672.1L565.0,670.8L566.5,668.7L565.6,664.9L566.9,661.1L564.2,658.0L563.0,652.4L561.0,654.3L560.7,647.6L557.6,645.6L557.1,641.6L556.3,641.4L554.9,645.1L552.9,641.9L555.0,640.9L556.0,632.0L553.4,629.1L553.7,626.4L555.8,626.9L557.6,624.1L559.3,626.4L562.8,622.4L563.8,622.7L564.3,625.7L566.6,623.0L567.4,626.5L575.3,616.6L578.1,619.0L579.4,614.7L578.6,612.1L579.8,610.4L578.6,604.4L572.9,601.1L572.9,597.4L566.3,597.0L566.2,595.1L563.4,591.9L554.9,585.4L553.3,585.6L554.1,588.1L552.5,588.6L552.6,590.9L551.3,591.0L555.3,596.1L555.5,598.3L552.5,601.9L550.3,602.4L550.2,606.1L548.0,608.1L548.8,609.3L547.6,611.6L548.3,612.9L546.6,614.5L547.4,616.4L545.3,619.2L543.6,617.0L542.2,618.5L539.8,618.1L539.0,620.4L540.3,622.7L533.5,637.2L532.5,636.1L528.8,637.5L526.3,630.6L521.4,633.7L520.0,630.4L515.0,627.9L513.9,632.1L512.5,631.5L513.1,633.1L511.2,634.5L514.4,637.7L514.2,640.7L509.5,645.6L507.8,649.3L508.2,651.5L509.8,652.5L509.5,654.6L513.5,655.2L515.0,663.6L518.0,662.7L518.7,664.3L521.1,664.4Z"/>
    <path id="宁夏" d="M536.7,468.2L537.7,467.2L536.5,462.5L538.2,456.5L537.3,455.9L542.4,450.3L538.8,447.9L539.2,446.7L535.5,442.9L531.9,443.4L525.1,439.0L527.6,435.3L528.5,429.4L532.1,424.1L532.3,421.4L530.7,420.1L529.1,413.5L526.9,413.7L525.5,416.1L522.1,416.4L522.2,419.2L520.2,419.0L517.6,424.8L515.9,431.2L516.1,439.5L514.6,443.7L515.7,446.5L514.5,451.4L512.5,451.9L512.1,453.8L507.9,453.7L503.7,456.6L495.0,458.2L492.8,460.3L498.6,460.8L499.1,462.7L497.8,463.4L498.0,465.7L500.0,464.6L502.6,469.6L505.7,470.7L505.9,473.1L508.2,475.3L506.3,477.7L507.0,481.2L508.6,482.6L510.9,491.0L508.4,493.7L508.9,499.4L509.6,498.8L510.4,501.0L514.5,501.1L513.5,501.7L515.8,506.7L516.6,505.3L519.2,506.2L519.7,509.8L520.6,508.0L521.5,508.6L523.4,512.7L525.4,509.7L524.4,502.0L527.2,500.6L529.1,501.9L531.7,499.0L530.5,497.2L531.9,496.1L531.7,491.2L528.1,487.9L525.4,488.1L525.7,483.3L523.4,480.7L524.6,481.2L525.6,477.4L527.5,477.2L527.7,474.8L526.0,470.9L527.5,471.4L526.9,467.5Z"/>
    <path id="台湾" d="M730.5,819.1L733.4,823.9L734.3,831.4L736.8,832.1L738.4,817.0L745.0,802.4L748.1,779.4L751.7,769.1L751.1,761.8L753.6,757.8L752.2,754.5L749.6,754.0L747.8,750.8L745.2,751.4L744.1,754.0L739.0,756.9L737.1,763.4L734.1,767.4L725.5,788.9L725.5,797.6L724.2,804.0L725.9,805.7L728.0,816.3Z M718.7,792.5L719.2,791.4L717.6,791.7L717.8,793.7Z M746.2,827.6L747.4,829.8L747.1,827.7Z"/>
    <path id="海南" d="M578.4,876.9L571.8,877.3L569.5,880.6L566.6,879.5L564.3,884.6L556.9,893.1L556.1,898.1L556.9,913.8L560.4,915.5L561.3,917.9L563.7,917.7L570.7,922.0L573.2,920.8L573.7,917.3L577.9,916.4L580.5,910.8L584.2,909.8L586.8,894.6L590.4,888.3L592.5,886.8L592.2,883.2L591.1,877.1L588.8,876.7L587.0,873.6L584.6,875.8L581.5,874.9Z M634.2,1174.3L636.6,1175.9L641.1,1173.5L643.6,1166.2L641.8,1166.0Z M569.0,1180.5L569.7,1181.1L572.6,1176.6L576.1,1176.3L571.8,1175.4Z M672.3,1107.5L672.0,1109.6L674.6,1108.9Z M575.9,1168.5L577.6,1168.5L578.0,1166.1Z"/>
  </g>
  <g id="labels">
    <text x="837.8" y="204.3" text-anchor="middle" dominant-baseline="middle">黑龙江</text>
    <text x="450.5" y="480.8" text-anchor="middle" dominant-baseline="middle">甘肃</text>
    <text x="827.3" y="314.7" text-anchor="middle" dominant-baseline="middle">吉林</text>
    <text x="671.1" y="305.3" text-anchor="middle" dominant-baseline="middle">内蒙古</text>
    <text x="712.2" y="488.0" text-anchor="middle" dominant-baseline="middle">山东</text>
    <text x="697.6" y="434.8" text-anchor="middle" dominant-baseline="middle">河北</text>
    <text x="663.5" y="367.0" class="fs22" text-anchor="middle" dominant-baseline="middle">北京</text>
    <text x="721.7" y="438.5" class="fs22" text-anchor="middle" dominant-baseline="middle">天津</text>
    <text x="265.3" y="617.6" text-anchor="middle" dominant-baseline="middle">西藏</text>
    <text x="187.4" y="382.9" text-anchor="middle" dominant-baseline="middle">新疆</text>
    <text x="640.5" y="555.0" text-anchor="middle" dominant-baseline="middle">河南</text>
    <text x="686.7" y="586.7" text-anchor="middle" dominant-baseline="middle">安徽</text>
    <text x="614.9" y="446.6" text-anchor="middle" dominant-baseline="middle">山西</text>
    <text x="608.5" y="620.9" text-anchor="middle" dominant-baseline="middle">湖北</text>
    <text x="378.2" y="514.8" text-anchor="middle" dominant-baseline="middle">青海</text>
    <text x="764.5" y="376.3" text-anchor="middle" dominant-baseline="middle">辽宁</text>
    <text x="628.6" y="813.4" text-anchor="middle" dominant-baseline="middle">广东</text>
    <text x="718.6" y="562.4" text-anchor="middle" dominant-baseline="middle">江苏</text>
    <text x="665.4" y="694.5" text-anchor="middle" dominant-baseline="middle">江西</text>
    <text x="743.7" y="659.6" text-anchor="middle" dominant-baseline="middle">浙江</text>
    <text x="713.3" y="736.5" text-anchor="middle" dominant-baseline="middle">福建</text>
    <text x="766.6" y="612.3" class="fs22" text-anchor="middle" dominant-baseline="middle">上海</text>
    <text x="562.5" y="521.0" text-anchor="middle" dominant-baseline="middle">陕西</text>
    <text x="603.7" y="711.9" text-anchor="middle" dominant-baseline="middle">湖南</text>
    <text x="552.6" y="785.0" text-anchor="middle" dominant-baseline="middle">广西</text>
    <text x="665.9" y="836.7" class="fs22" text-anchor="middle" dominant-baseline="middle">香港</text>
    <text x="635.4" y="856.1" class="fs22" text-anchor="middle" dominant-baseline="middle">澳门</text>
    <text x="533.2" y="713.7" text-anchor="middle" dominant-baseline="middle">贵州</text>
    <text x="553.6" y="643.7" class="fs22" text-anchor="middle" dominant-baseline="middle">重庆</text>
    <text x="470.9" y="616.4" text-anchor="middle" dominant-baseline="middle">四川</text>
    <text x="454.0" y="750.3" text-anchor="middle" dominant-baseline="middle">云南</text>
    <text x="520.1" y="463.5" class="fs22" text-anchor="middle" dominant-baseline="middle">宁夏</text>
    <text x="751.2" y="790.4" class="fs22" text-anchor="middle" dominant-baseline="middle">台湾</text>
    <text x="589.7" y="1002.6" class="fs22" text-anchor="middle" dominant-baseline="middle">海南</text>
  </g>
  <text id="score" x="48" y="940">分数: 0</text>
  <g id="legend">
    <path class="legend-swatch" data-level="5" fill="#C0394A" d="M994 420h120v48H994Z"/>
    <path class="legend-swatch" data-level="4" fill="#D96B42" d="M994 468h120v48H994Z"/>
    <path class="legend-swatch" data-level="3" fill="#E2B24A" d="M994 516h120v48H994Z"/>
    <path class="legend-swatch" data-level="2" fill="#5E9E98" d="M994 564h120v48H994Z"/>
    <path class="legend-swatch" data-level="1" fill="#8FA6C4" d="M994 612h120v48H994Z"/>
    <path class="legend-swatch" data-level="0" fill="#F3F5F7" d="M994 660h120v48H994Z"/>
    <path class="legend-border" fill="none" stroke="#2A3544" stroke-width="3" d="M994 418h120v292H994Z"/>
    <text x="1010" y="452">居住 5</text>
    <text x="1010" y="500">短居 4</text>
    <text x="1010" y="548">游玩 3</text>
    <text x="1010" y="596">落脚 2</text>
    <text x="1010" y="644">路过 1</text>
    <text x="1008" y="692">没去过</text>
  </g>
  <text id="credit" x="48" y="964">cn-ex</text>
</svg>
