<svg xmlns="http://www.w3.org/2000/svg" viewBox="0 0 1134 976" role="img" aria-label="中国省级制霸地图">
  <rect id="map-bg" x="0" y="0" width="1134" height="976" fill="#B4CDEA"/>
  <text id="title" x="48" y="52">中国制霸</text>
  <g id="regions">
    <path id="黑龙江" d="M777.3,245.0L783.1,243.5L783.7,256.1L789.6,264.1L808.7,262.3L813.3,270.9L827.6,271.7L828.9,285.4L836.4,285.2L835.3,289.3L839.7,297.5L844.3,296.0L843.7,290.7L848.5,286.7L855.9,310.5L861.1,309.2L861.5,303.7L871.8,298.6L873.7,303.3L878.0,298.2L878.7,307.8L889.5,313.3L891.9,311.4L892.0,298.1L886.8,278.5L894.8,275.4L900.5,266.5L916.3,274.3L919.0,271.8L919.1,264.4L930.4,244.3L929.6,238.9L935.1,223.5L934.4,218.1L943.3,208.6L940.0,202.1L941.8,195.5L948.0,191.0L918.9,198.4L912.0,203.0L910.4,208.6L887.8,209.2L882.4,199.1L885.1,194.5L880.5,186.8L882.6,180.2L876.1,180.5L865.4,167.0L840.2,162.8L836.0,157.2L837.1,147.1L833.1,144.6L832.5,134.5L827.0,127.0L827.9,120.7L825.5,121.7L826.8,118.6L820.2,105.4L821.6,100.8L812.9,88.8L815.0,85.4L808.6,83.1L807.6,77.7L800.6,74.8L796.6,77.3L776.6,66.1L749.6,70.2L746.7,71.5L751.4,78.2L742.0,89.5L751.7,97.2L756.6,91.6L765.8,98.0L763.4,102.5L768.9,120.9L789.7,121.9L796.5,119.3L800.4,112.4L814.2,127.5L809.7,134.7L810.8,139.2L802.3,150.4L800.4,161.3L801.8,172.7L795.7,174.5L791.4,188.1L791.6,198.1L789.9,199.6L787.6,188.6L760.3,217.5L766.7,224.3L765.6,226.7L769.3,233.0L774.4,230.1L773.4,226.1L777.9,228.8L777.8,233.7L768.9,236.5L771.5,244.4Z"/>
    <path id="甘肃" d="M524.7,500.8L522.6,513.0L519.7,508.1L515.6,508.7L517.9,506.7L508.0,499.5L507.5,493.6L510.0,490.8L504.8,470.2L497.0,465.1L497.6,460.1L490.3,460.1L478.8,449.0L478.2,443.5L480.7,441.8L478.9,435.8L490.5,421.5L488.9,411.0L477.9,413.2L472.9,418.8L464.7,415.0L456.5,418.5L459.1,423.9L454.7,429.5L448.1,426.7L446.5,420.7L442.7,422.5L440.8,411.4L435.7,411.5L432.0,404.5L420.1,399.6L430.9,390.1L431.9,379.4L429.9,375.5L416.1,375.9L410.6,382.0L408.6,378.0L403.8,383.0L403.7,374.4L393.2,361.7L396.5,356.4L386.5,328.7L370.7,333.3L368.8,337.4L371.8,342.8L369.9,349.6L358.8,358.7L356.3,353.6L347.4,360.1L339.7,369.7L336.0,380.6L323.6,382.9L319.4,408.7L314.9,415.5L316.0,420.3L326.4,416.9L327.4,423.1L345.0,427.0L347.8,437.1L364.7,435.9L373.0,442.1L379.0,440.0L380.9,430.8L384.8,431.1L383.4,416.4L400.1,426.5L402.9,420.6L407.4,423.0L410.8,419.2L430.2,440.0L428.7,433.2L441.9,441.3L441.6,445.3L446.2,449.4L457.9,452.3L467.5,467.6L464.6,470.8L473.8,489.1L471.0,492.4L471.9,498.6L468.1,500.0L469.0,506.7L465.4,504.5L462.3,508.5L463.9,514.4L456.7,521.9L457.0,528.9L461.8,534.5L457.3,540.5L442.4,533.9L439.7,538.8L445.6,551.5L456.2,553.5L456.0,565.1L464.8,556.6L460.0,544.1L471.5,535.6L475.4,541.3L475.2,548.0L490.2,553.0L493.8,559.6L491.9,571.6L500.6,577.3L506.8,576.0L508.5,569.5L516.0,567.8L516.7,562.6L512.9,558.3L516.8,552.6L525.8,553.5L523.3,545.4L525.0,536.1L527.8,534.2L521.8,529.1L525.7,524.4L525.2,516.8L535.7,521.7L544.5,519.3L543.0,511.2L555.4,511.6L554.2,497.5L557.4,491.0L556.0,483.8L536.6,472.2L534.7,466.5L526.3,466.7L526.7,476.8L522.7,481.0L524.7,487.9L531.4,492.2L530.5,500.3Z"/>
    <path id="吉林" d="M866.6,337.9L868.8,336.6L869.8,327.3L871.9,323.4L876.7,326.3L876.4,330.7L879.0,334.6L880.3,332.9L882.1,337.7L881.3,331.7L878.6,330.2L889.5,325.2L892.1,311.5L885.3,313.0L878.7,307.8L878.0,298.2L873.7,303.3L871.8,298.6L868.7,302.3L861.5,303.7L861.1,309.2L855.9,310.5L853.7,305.7L854.2,302.8L849.9,295.4L848.5,286.7L843.7,290.7L844.3,296.0L839.7,297.5L835.3,289.3L836.4,285.2L830.8,283.6L828.9,285.4L827.9,279.2L829.5,276.2L827.6,271.7L821.8,268.7L813.3,270.9L808.8,266.3L808.7,262.3L803.9,265.3L800.0,265.5L797.2,261.8L796.8,264.1L789.6,264.1L783.7,256.1L784.3,250.0L782.2,243.1L772.6,243.8L769.6,248.1L765.8,248.7L765.1,257.7L761.6,255.7L760.7,252.5L757.9,255.4L751.8,249.9L748.8,256.5L753.7,258.0L754.1,262.5L757.6,268.1L754.8,277.0L756.6,280.5L756.0,285.2L758.3,287.6L758.1,293.0L764.1,292.3L770.8,286.8L770.8,290.3L774.6,295.3L773.8,298.6L776.6,306.4L775.6,310.4L773.4,310.2L775.1,313.7L779.3,314.6L781.6,312.5L784.2,316.8L787.8,318.0L790.0,321.8L789.2,326.6L790.6,327.4L796.8,320.4L796.7,328.8L798.1,328.5L800.0,332.9L799.5,335.9L802.9,341.0L803.0,344.5L805.8,344.7L802.8,349.1L803.2,355.9L805.1,356.0L806.6,362.7L810.2,368.4L807.2,375.1L813.9,374.2L821.3,363.5L822.3,356.1L827.1,352.6L831.9,360.6L844.6,363.6L847.6,358.4L843.4,348.1L857.0,347.4L863.2,336.9Z"/>
    <path id="内蒙古" d="M386.5,328.7L396.5,356.4L393.2,361.7L403.7,374.4L403.8,383.0L408.6,378.0L410.6,382.0L416.1,375.9L429.9,375.5L431.9,379.4L430.9,390.1L420.1,399.6L432.0,404.5L435.7,411.5L440.8,411.4L442.7,422.5L446.5,420.7L448.1,426.7L454.7,429.5L459.1,423.9L456.5,418.5L464.7,415.0L472.9,418.8L477.9,413.2L488.9,411.0L490.5,421.5L478.9,435.8L480.7,441.8L478.1,444.7L478.8,449.0L490.3,460.1L513.6,450.5L516.8,423.5L526.1,412.1L528.8,412.2L531.6,420.6L524.3,437.8L534.8,441.9L547.2,454.2L558.3,453.4L558.6,444.5L560.6,447.5L562.6,445.1L560.7,440.6L562.4,435.1L575.3,418.6L575.0,414.6L579.6,414.4L578.7,410.2L585.7,414.7L593.2,406.9L592.5,412.1L596.2,411.0L598.6,405.1L605.1,406.0L610.6,390.6L617.1,392.8L621.3,387.9L636.6,384.0L636.5,374.3L633.0,370.1L635.9,366.8L633.7,362.4L639.1,359.9L638.6,353.2L643.9,344.8L648.4,345.7L648.4,357.8L653.5,358.5L662.8,349.6L666.7,353.5L669.8,348.1L677.0,348.6L678.9,338.2L691.6,333.0L696.6,347.2L699.3,346.7L699.8,351.8L696.8,354.6L700.5,364.8L712.6,365.6L715.9,358.6L714.0,353.2L715.4,345.9L713.2,343.2L717.1,338.6L722.1,342.8L725.9,355.5L731.4,345.5L745.0,336.5L749.6,337.4L753.2,331.3L760.0,331.4L760.6,327.5L766.7,330.7L777.4,323.6L779.3,314.6L773.6,311.7L776.9,308.2L774.6,295.3L770.8,286.8L758.1,293.0L754.8,277.0L757.6,268.1L753.7,258.0L748.8,256.5L751.8,249.9L765.1,257.7L765.8,248.7L771.5,244.4L768.9,236.5L777.8,233.7L777.9,228.8L773.4,226.1L774.4,230.1L769.0,232.7L765.6,226.7L766.7,224.3L760.3,217.5L787.6,188.6L789.9,199.6L791.6,198.1L791.4,188.1L795.7,174.5L801.8,172.7L800.4,161.3L802.3,150.4L810.8,139.2L809.7,134.7L814.2,127.5L800.4,112.4L796.5,119.3L789.7,121.9L768.9,120.9L763.4,102.5L765.8,98.0L756.6,91.6L753.3,96.9L749.9,96.4L742.0,89.5L750.9,79.3L749.4,73.9L736.6,73.2L724.9,85.3L725.6,89.8L735.4,91.0L733.8,96.2L736.1,100.3L734.2,105.9L725.8,112.0L711.5,143.4L715.0,144.2L714.9,148.9L692.0,164.6L675.9,156.6L662.3,189.1L662.6,195.4L658.3,197.9L659.0,203.6L664.4,209.4L677.0,204.2L685.8,210.5L692.1,201.3L703.3,201.9L720.3,221.3L723.2,234.2L715.2,235.8L708.4,231.6L686.3,236.3L685.6,241.7L673.9,243.4L667.8,258.1L655.8,265.3L643.8,265.4L630.2,281.1L618.6,278.8L612.5,273.1L604.6,273.6L597.4,290.6L605.3,306.8L591.5,315.6L582.9,329.0L569.7,336.5L538.9,336.9L502.5,358.2L495.3,356.3L495.4,351.1L479.0,350.9L459.0,342.4L455.0,335.8L441.1,331.7L421.1,334.2Z"/>
    <path id="山东" d="M670.8,527.6L671.8,521.4L676.9,519.4L681.1,525.8L682.5,532.6L685.6,528.9L688.0,531.8L691.9,530.6L691.8,527.3L694.2,526.7L697.6,529.9L697.5,534.0L700.5,533.1L701.7,527.2L706.5,525.6L707.6,518.2L715.2,516.9L719.5,504.4L723.4,503.3L723.4,500.3L724.7,501.4L725.4,497.5L729.0,495.1L726.2,491.9L727.2,489.4L729.8,489.6L728.7,493.3L735.0,491.3L734.8,484.9L736.8,483.0L737.4,485.5L738.8,483.1L737.0,479.3L739.7,480.4L747.7,474.2L746.5,475.2L748.9,476.8L748.6,474.9L754.2,471.0L756.7,473.9L762.0,472.4L762.7,469.1L761.0,469.1L761.3,466.9L764.7,460.5L756.6,459.3L756.3,456.4L747.8,459.3L745.1,454.8L742.5,455.8L741.3,452.4L735.3,449.7L727.9,453.1L728.1,456.5L722.2,460.8L722.9,463.6L720.6,466.8L714.5,467.2L712.7,463.2L710.5,463.8L708.8,457.2L710.0,454.4L713.6,453.9L714.0,448.8L712.1,450.1L708.3,442.2L703.0,444.3L693.3,438.3L686.6,449.2L677.2,449.3L671.7,458.5L670.2,455.9L668.8,461.2L664.9,461.8L660.6,474.7L655.7,479.1L654.5,482.3L657.6,491.4L655.4,499.4L666.7,491.7L666.0,495.1L651.1,509.6L647.8,517.6L653.7,519.8L658.6,529.3L668.9,529.8Z"/>
    <path id="河北" d="M687.0,381.0L683.2,384.6L683.4,387.9L691.6,395.4L691.6,397.7L687.7,398.1L689.5,406.5L693.9,407.2L692.1,412.6L702.1,423.5L703.8,421.9L703.4,418.1L708.6,418.2L713.7,412.4L715.1,403.3L717.7,399.6L722.6,397.8L719.1,391.2L718.0,383.5L713.5,383.6L712.4,380.3L707.4,376.8L709.7,373.3L708.7,371.2L713.2,364.8L700.0,364.1L696.8,354.6L699.8,351.8L699.3,346.7L696.6,347.2L696.4,343.9L694.5,342.5L695.2,338.7L691.9,333.1L678.9,338.2L677.0,348.6L669.8,348.1L666.7,353.5L662.8,349.6L655.6,355.1L656.0,357.7L648.4,357.8L649.5,351.8L647.4,344.4L643.2,345.4L643.2,348.5L638.6,353.2L639.1,359.9L634.7,360.6L634.2,364.7L635.9,366.8L633.0,370.1L636.5,374.3L640.3,387.8L643.5,388.4L634.3,396.5L641.5,400.1L641.7,405.3L644.1,407.2L640.8,419.4L634.1,419.6L632.2,422.2L633.3,427.1L629.2,432.0L628.9,439.0L633.1,441.5L635.5,452.8L637.7,453.5L632.3,466.3L632.3,473.6L627.7,477.2L629.5,483.2L644.4,491.5L649.2,491.0L649.2,493.2L653.4,489.3L655.9,492.0L657.5,488.4L654.5,482.3L657.6,475.9L660.6,474.7L664.9,461.8L668.8,461.2L670.2,455.9L671.7,458.5L677.2,449.3L686.6,449.2L688.8,443.9L691.5,442.4L694.2,436.5L691.6,436.5L689.5,430.3L683.8,432.1L676.3,427.2L676.4,420.4L678.8,418.5L677.3,406.2L673.0,406.7L671.2,408.4L671.7,410.4L668.2,406.9L661.6,408.7L658.1,406.7L657.0,402.9L658.8,401.3L657.2,396.1L664.8,390.4L661.6,383.7L667.7,380.7L668.9,377.5L672.0,378.2L670.3,374.2L672.3,374.9L672.0,372.9L674.4,371.2L679.5,379.5Z M683.2,394.9L676.8,396.0L676.9,399.5L679.3,402.2L678.4,404.5L682.7,405.5Z M691.7,412.1L687.8,412.5Z"/>
    <path id="北京" d="M685.2,382.7L686.4,382.8L686.2,382.1L687.7,380.7L679.5,379.5L677.8,376.4L675.8,374.7L675.3,373.2L675.6,371.9L674.8,371.0L674.4,371.2L674.1,373.1L672.0,372.9L672.3,374.9L671.2,374.7L670.7,373.8L670.3,374.2L670.2,374.8L672.2,378.0L669.9,378.4L668.9,377.5L667.7,380.7L665.0,382.7L663.9,381.8L661.6,383.7L661.3,384.6L662.0,384.8L661.9,386.0L663.2,388.1L664.0,388.2L664.8,390.4L663.8,391.1L663.0,393.3L661.9,392.6L661.6,393.3L659.3,393.9L657.2,396.1L656.8,398.1L658.2,399.3L658.1,400.8L658.8,401.3L657.0,402.1L657.0,402.9L657.7,403.1L657.5,405.4L658.2,405.6L658.1,406.7L660.3,406.2L661.6,408.7L662.4,408.8L663.9,406.6L664.6,407.6L664.9,406.7L667.2,407.4L668.2,406.9L668.8,407.5L669.1,409.0L671.7,410.4L671.8,409.5L671.4,409.5L671.2,408.4L671.8,408.8L673.0,406.7L674.0,406.1L677.0,406.7L677.8,405.0L678.7,404.7L678.6,402.6L679.3,402.2L678.8,400.6L676.9,399.5L676.5,397.6L676.8,396.0L679.0,395.5L680.4,396.1L685.2,393.5L685.8,391.3L685.3,391.2L685.0,389.8L684.4,390.1L683.4,387.9L684.0,386.1L683.2,384.6L684.0,384.3L684.1,383.2Z"/>
    <path id="天津" d="M691.4,411.5L693.0,411.2L693.9,407.2L691.4,406.6L690.7,408.3L690.5,407.2L689.7,407.2L689.5,406.5L690.0,405.0L688.6,403.5L688.9,403.0L688.2,402.3L688.4,401.7L687.6,399.2L688.2,396.9L691.6,397.7L691.8,396.7L691.1,396.4L691.6,395.4L690.1,394.9L688.2,391.2L686.2,390.8L685.2,393.5L682.9,395.2L683.0,397.0L682.3,398.2L682.5,399.9L683.7,400.2L683.8,400.9L682.4,401.3L683.1,402.6L682.5,403.0L682.7,405.5L682.3,406.0L679.5,405.6L679.1,404.0L677.3,406.2L676.9,407.7L677.4,409.5L676.9,409.9L678.2,410.6L677.4,412.1L677.5,413.0L678.4,413.0L678.3,415.7L677.9,416.0L678.8,418.5L678.2,419.9L676.4,420.4L675.7,422.9L676.4,425.4L676.3,427.2L678.0,427.6L678.2,429.0L681.1,429.0L680.9,430.0L681.7,431.4L683.2,430.0L683.9,430.8L683.8,432.1L689.5,430.3L689.8,429.5L690.9,429.0L691.0,427.2L689.6,426.4L689.6,425.4L691.6,424.4L692.6,424.8L693.4,422.5L692.7,422.3L692.5,419.9L693.0,418.3L694.5,416.2L695.8,415.6L695.2,414.2L692.7,413.2L692.7,412.4L690.0,412.5L690.0,413.4L687.8,412.5L689.0,411.0L690.0,411.2L690.0,411.8Z M692.0,412.1L692.7,412.0L692.6,411.3L691.4,411.5Z"/>
    <path id="西藏" d="M276.0,492.1L257.6,482.7L242.2,484.0L225.2,490.3L221.8,498.3L215.3,502.9L207.0,500.5L193.8,510.0L178.5,509.1L176.1,502.5L168.8,501.3L157.2,513.1L138.6,507.9L136.2,511.6L137.6,513.7L132.7,518.0L129.3,531.5L118.0,532.9L116.3,539.4L112.4,541.1L112.7,551.6L119.7,563.1L122.0,577.4L117.0,583.9L113.6,574.8L108.5,579.1L109.6,588.9L113.9,593.3L113.8,607.7L118.8,616.6L127.3,616.9L132.9,626.1L147.5,634.8L149.0,640.4L153.2,630.5L163.4,632.3L164.5,639.1L180.6,651.2L185.5,660.9L193.2,658.2L194.9,667.9L198.6,671.6L204.1,675.7L208.1,673.1L207.9,681.2L215.1,683.4L216.9,680.5L221.1,691.8L223.9,685.5L227.2,691.9L231.4,687.1L239.2,694.1L262.0,687.9L263.8,693.3L262.3,702.6L265.2,708.9L268.2,704.8L269.0,694.5L277.2,683.7L290.7,687.7L295.5,693.0L302.0,689.5L304.1,692.2L303.7,700.8L310.9,704.4L311.5,717.5L336.8,713.3L343.6,699.8L366.6,682.4L373.2,684.0L385.4,695.9L389.6,692.4L389.1,683.8L392.4,676.4L400.8,686.1L403.2,680.2L404.5,686.8L409.3,684.0L408.0,666.2L413.1,669.3L414.5,642.5L412.9,622.1L407.7,611.7L411.9,607.3L404.9,596.1L402.0,583.6L389.2,578.2L388.5,590.1L379.8,591.7L380.6,599.9L371.9,594.3L371.4,601.7L368.9,596.5L366.5,599.7L361.9,598.1L359.7,593.0L360.8,588.2L355.5,585.2L357.5,582.3L353.0,581.9L348.6,575.6L341.5,581.4L335.4,577.9L332.3,580.4L325.0,574.0L313.7,574.4L303.0,565.2L286.3,561.3L274.9,542.0L278.3,535.3L276.2,527.1L278.3,523.4L274.0,521.4L272.1,513.4L276.8,507.0L277.3,498.1L271.5,494.0Z"/>
    <path id="新疆" d="M374.8,330.3L367.3,316.8L362.1,299.1L359.2,298.6L360.4,292.0L350.2,291.0L332.2,275.7L293.3,270.2L290.3,260.7L295.5,249.9L293.6,242.9L295.9,233.0L288.6,221.1L286.0,210.4L273.9,200.8L266.6,202.0L250.3,187.7L252.0,184.1L246.8,180.2L249.4,177.8L248.0,173.1L234.2,174.1L229.6,188.6L218.0,191.5L214.9,197.0L216.6,219.1L214.3,224.7L205.6,229.5L177.0,220.8L165.8,259.8L169.9,264.5L170.2,269.9L160.7,269.2L158.7,265.5L130.5,277.1L138.1,283.9L138.0,296.2L144.1,319.3L137.8,322.9L141.1,326.2L136.1,327.9L136.5,341.7L134.3,347.2L105.0,363.1L99.3,371.9L86.1,371.8L77.9,388.5L68.7,390.0L67.1,380.8L61.8,385.9L55.9,384.1L56.8,388.6L43.7,394.8L41.4,409.5L36.0,411.9L41.0,421.0L38.9,424.7L40.4,430.7L49.6,429.8L56.1,433.8L55.3,441.6L58.3,451.2L56.6,453.7L60.3,461.4L50.9,464.2L50.8,468.3L64.3,471.1L65.0,476.8L71.1,478.2L73.9,488.9L72.2,492.7L75.4,498.7L81.2,496.3L84.4,502.9L90.7,506.2L104.7,506.7L102.9,513.2L105.8,525.7L115.9,534.6L129.3,531.5L132.7,518.0L137.6,513.7L136.2,511.6L138.6,507.9L157.2,513.1L168.8,501.3L176.1,502.5L178.5,509.1L193.8,510.0L207.0,500.5L215.3,502.9L221.8,498.3L223.8,491.2L241.2,484.2L257.6,482.7L276.8,492.6L280.9,487.7L292.9,494.0L296.9,491.6L295.6,481.5L291.3,480.1L291.1,474.3L299.6,469.7L299.2,466.0L296.2,458.4L288.0,452.2L288.1,437.8L284.4,439.8L281.9,434.0L316.1,421.0L314.9,415.5L319.4,408.7L323.6,382.9L336.0,380.6L339.7,369.7L347.4,360.1L356.3,353.6L358.8,358.7L369.9,349.6L371.8,342.8L368.8,337.4Z"/>
    <path id="河南" d="M616.6,583.3L624.0,581.5L627.2,585.4L631.7,582.0L631.6,590.0L633.5,595.8L635.5,598.1L638.5,595.6L640.0,598.0L644.3,597.8L643.9,602.7L647.9,605.2L652.9,601.6L654.9,607.0L657.8,600.0L663.6,597.5L663.9,578.2L659.7,582.1L653.4,577.6L653.4,571.1L648.7,567.8L649.0,564.4L654.9,563.9L655.6,555.3L659.9,553.3L658.8,548.8L659.8,546.4L658.6,546.3L659.4,542.5L664.6,543.0L666.4,548.5L669.2,549.8L674.8,545.7L673.1,540.2L673.9,536.7L670.8,536.7L666.8,528.4L658.1,529.0L653.7,519.8L647.8,517.6L651.1,509.6L666.0,495.1L666.7,491.7L655.8,499.8L657.3,490.3L655.1,492.3L652.3,489.3L649.2,493.2L649.2,491.0L644.4,491.5L631.7,485.6L630.1,503.4L622.7,510.7L620.8,510.0L617.5,513.8L606.9,512.0L606.9,517.5L603.2,517.3L599.7,522.6L593.4,523.5L588.6,528.2L582.0,528.6L583.9,535.0L582.9,537.3L585.9,539.3L585.1,545.9L591.3,553.5L591.0,561.4L595.1,567.4L595.0,570.4L599.8,577.5L608.3,582.8Z"/>
    <path id="安徽" d="M674.1,542.9L674.6,545.9L667.6,550.3L664.6,543.0L660.2,541.7L658.6,546.3L659.8,546.4L658.8,548.8L659.9,553.3L655.6,555.3L654.7,564.4L649.0,564.4L648.7,567.8L653.4,571.1L653.4,577.6L659.7,582.1L663.9,578.2L664.0,596.5L657.8,600.0L656.0,607.9L659.1,612.9L660.8,611.5L666.1,616.1L661.7,624.1L663.9,628.1L663.8,633.1L666.2,635.8L667.3,645.2L673.4,643.0L675.1,638.9L678.6,642.0L675.2,647.9L675.9,651.4L681.7,647.8L681.1,644.9L683.3,642.6L683.8,644.8L686.2,644.4L688.1,650.8L694.9,651.1L696.9,655.0L699.6,654.9L708.1,642.3L707.9,633.1L715.6,631.6L713.2,625.9L716.3,624.9L719.1,615.9L718.9,613.2L715.5,612.1L714.9,609.0L706.6,610.8L705.5,608.5L707.5,606.8L707.6,601.2L704.4,600.5L705.2,599.1L700.3,593.7L700.7,590.1L705.3,584.0L703.3,577.7L708.3,577.5L710.9,581.0L713.1,577.2L712.4,571.9L707.4,568.7L706.1,574.0L700.4,574.5L698.6,571.3L698.1,562.9L695.4,564.3L694.0,562.1L697.3,549.7L691.2,550.3L689.4,542.5L682.9,541.5L680.4,539.1L679.6,533.7L674.0,531.2L671.6,527.3L668.2,529.2L668.4,533.9L673.9,536.7Z"/>
    <path id="山西" d="M582.0,528.6L588.6,528.2L593.4,523.5L599.7,522.6L603.2,517.3L606.9,517.5L606.9,512.0L617.5,513.8L630.1,503.4L631.7,485.6L627.7,477.2L632.3,473.6L632.3,466.3L637.7,453.5L635.5,452.8L633.1,441.5L628.9,439.0L629.2,432.0L633.3,427.1L632.2,422.2L634.1,419.6L640.8,419.4L644.1,407.2L641.7,405.3L641.5,400.1L634.3,396.5L643.5,388.4L640.3,387.8L637.6,378.9L636.6,384.0L632.6,384.2L629.1,388.4L621.3,387.9L617.1,392.8L612.8,389.5L610.6,390.6L605.1,406.0L598.6,405.1L596.5,410.7L593.3,411.3L594.9,413.9L590.9,422.0L589.4,434.6L584.0,441.0L584.2,446.7L587.3,451.2L588.2,456.4L586.0,459.4L586.6,463.0L582.1,469.5L582.3,477.9L583.8,480.2L583.0,490.4L585.4,503.4L579.8,521.7L579.8,526.3Z"/>
    <path id="湖北" d="M591.9,563.5L590.6,561.4L586.8,565.2L585.0,561.5L579.6,563.6L570.8,560.9L568.1,563.9L573.4,566.0L573.3,570.5L578.8,573.3L579.5,576.6L576.7,578.7L571.0,577.4L568.9,584.7L570.8,589.4L570.3,598.7L572.4,599.3L572.4,603.0L578.2,606.4L579.4,612.5L577.6,621.3L574.9,618.8L566.9,628.9L566.0,625.4L563.7,628.1L562.2,624.8L558.8,628.8L557.0,626.5L555.2,629.4L553.1,628.8L552.8,631.6L555.4,634.5L554.4,643.6L552.3,644.7L554.3,647.9L556.6,644.3L557.0,648.4L560.1,650.4L560.4,657.2L562.5,655.3L563.7,661.1L565.7,662.2L568.0,652.2L572.2,650.2L573.1,646.7L578.1,645.9L581.9,649.7L584.7,647.8L585.9,646.3L583.8,639.4L589.0,637.7L597.1,642.9L603.2,643.2L609.6,649.1L610.3,652.6L612.5,649.7L616.3,650.5L619.4,645.9L620.0,648.5L621.2,646.3L620.1,653.6L623.0,654.2L629.3,644.5L628.9,648.7L630.7,648.5L631.8,651.0L630.2,652.4L632.0,654.3L629.9,659.0L631.1,663.3L634.1,664.5L640.2,656.3L648.9,655.5L649.7,653.8L648.4,653.6L650.5,651.2L652.7,652.7L652.1,648.5L654.7,650.1L658.0,644.7L663.9,647.5L667.3,645.2L666.2,635.8L663.8,633.1L663.9,628.1L661.7,624.1L666.3,617.4L663.3,612.8L659.1,612.9L656.0,606.5L654.2,606.8L652.9,601.6L647.9,605.2L643.9,602.7L644.3,597.8L640.0,598.0L638.5,595.6L635.5,598.1L632.1,592.2L631.7,582.0L627.2,585.4L624.0,581.5L610.9,584.1L599.8,577.5Z"/>
    <path id="青海" d="M470.2,485.5L466.9,477.1L468.6,475.7L464.6,470.8L466.8,465.8L457.9,452.3L446.2,449.4L441.6,445.3L441.9,441.3L428.7,433.2L430.2,440.0L410.8,419.2L407.4,423.0L402.9,420.6L400.1,426.5L383.4,416.4L384.8,431.1L380.9,430.8L379.0,440.0L373.0,442.1L364.7,435.9L347.8,437.1L345.0,427.0L327.4,423.1L326.4,416.9L282.2,433.6L284.4,439.8L288.1,437.8L288.0,452.2L296.2,458.4L299.2,466.0L299.6,469.7L292.9,472.1L290.7,478.4L295.6,481.5L296.9,491.6L292.9,494.0L280.3,487.6L279.4,492.8L271.5,494.0L277.3,498.1L276.8,507.0L272.1,513.4L274.0,521.4L278.3,523.4L276.2,527.1L278.3,535.3L274.9,542.0L285.7,560.8L293.6,565.6L303.0,565.2L313.7,574.4L325.0,574.0L332.3,580.4L335.4,577.9L341.5,581.4L348.6,575.6L353.0,581.9L357.5,582.3L355.5,585.2L360.8,588.2L359.7,593.0L361.9,598.1L366.5,599.7L368.9,596.5L372.2,601.8L371.9,594.3L380.6,599.9L379.8,591.7L388.5,590.1L388.8,578.8L394.7,579.1L389.1,570.1L395.1,557.6L390.1,552.8L389.4,547.1L395.9,538.1L404.7,541.1L410.0,560.8L417.5,570.6L424.2,574.1L426.5,566.5L431.4,577.2L434.3,573.6L437.9,579.2L438.6,575.5L445.5,575.9L445.0,562.2L452.5,565.1L454.7,554.6L445.6,551.5L439.7,538.8L440.5,535.5L446.0,535.0L454.1,541.3L461.8,534.5L457.0,528.9L456.7,521.9L463.9,514.4L462.3,508.5L469.9,505.1L468.1,500.0L471.9,498.6L471.0,492.4L473.8,489.1Z"/>
    <path id="辽宁" d="M776.8,402.0L785.2,401.2L785.9,403.1L788.8,394.9L794.7,387.8L808.7,378.1L807.2,374.1L810.2,368.4L806.6,362.7L805.1,356.0L803.2,355.9L802.9,352.4L802.9,348.7L805.8,344.7L803.0,344.5L802.9,341.0L799.5,335.9L800.0,332.9L798.1,328.5L796.7,328.8L796.8,320.4L790.6,327.4L789.2,326.6L790.0,321.8L787.8,318.0L784.2,316.8L780.7,311.7L777.4,323.6L772.7,323.8L772.3,327.8L766.7,330.7L760.6,327.5L759.3,327.8L760.9,329.6L760.0,331.4L753.2,331.3L749.6,337.4L745.0,336.5L740.3,341.9L731.4,345.5L725.9,355.5L722.1,342.8L717.1,338.6L713.2,343.2L715.4,345.9L714.0,353.2L715.6,360.9L708.7,371.2L709.7,373.3L707.4,376.8L712.4,380.3L713.5,383.6L718.0,383.5L719.1,391.2L722.3,397.1L731.8,392.0L733.7,385.6L741.2,375.7L751.4,375.0L753.4,380.2L756.3,380.5L757.7,384.2L753.2,390.9L754.0,393.7L747.3,399.9L746.0,406.0L742.6,407.7L743.3,412.1L746.9,414.3L750.0,412.4L748.0,414.8L748.6,419.3L748.0,417.5L746.8,420.4L740.6,423.1L741.3,428.0L749.8,424.3L749.2,421.0L752.9,422.0L751.9,420.4L755.0,419.8L760.2,411.2Z"/>
    <path id="广东" d="M629.1,830.8L630.7,825.2L629.3,825.9L631.8,822.9L630.9,818.2L634.1,825.1L641.3,821.3L643.1,825.2L644.9,823.4L643.3,819.9L646.2,816.7L646.7,821.7L648.8,822.8L653.3,816.0L659.0,820.1L660.1,814.8L662.7,818.0L669.7,812.7L672.7,813.2L673.6,808.3L677.2,806.6L678.4,799.3L682.9,797.8L679.4,789.0L680.0,782.8L676.5,773.8L677.3,771.2L673.1,772.4L671.1,765.7L668.9,767.8L663.7,764.3L661.6,768.9L662.9,773.4L660.7,773.8L656.6,767.8L642.0,775.3L638.1,770.3L640.6,768.9L644.0,760.9L646.5,759.8L646.6,756.1L643.7,752.6L636.2,756.6L635.7,752.0L629.5,755.3L624.2,750.3L618.7,754.5L621.3,757.9L620.8,764.5L619.0,765.3L615.8,759.5L608.8,758.3L608.5,766.2L605.1,770.4L606.9,778.9L604.2,781.6L605.1,787.4L603.2,791.9L600.9,791.2L600.3,795.9L597.1,800.1L596.5,814.2L587.5,822.3L586.6,824.3L588.1,829.0L586.5,831.7L581.6,831.2L582.2,838.5L576.4,838.8L575.2,844.0L572.6,845.3L573.2,849.2L575.0,849.8L572.8,851.9L571.3,862.0L575.1,878.9L581.6,878.4L584.4,874.5L582.2,864.8L579.1,863.0L579.5,859.1L582.7,855.7L591.7,849.6L605.6,845.6L605.4,843.0L608.0,841.0L611.3,843.1L612.6,840.7L615.6,841.8L617.8,837.9L619.8,839.9L622.1,832.8L624.8,839.1L629.2,834.1Z M584.1,858.4L580.9,858.2L579.4,861.8L584.3,862.2Z M676.6,865.9L678.4,868.0L676.3,870.1L678.0,870.4L679.0,867.0Z M618.7,842.3L616.5,843.8L617.5,846.6Z M582.8,856.1L584.5,858.3L585.8,855.2Z M680.4,800.9L679.2,800.8L682.2,801.8L682.0,799.7Z M613.9,846.1L615.9,842.9Z M664.4,857.9L666.3,859.3Z M586.0,861.9L584.7,863.7Z"/>
    <path id="江苏" d="M684.7,529.5L682.5,532.6L681.1,525.8L676.9,519.4L671.8,521.4L670.7,524.9L674.0,531.2L679.6,533.7L682.0,540.7L689.4,542.5L691.2,550.3L697.3,549.7L694.0,562.1L695.4,564.3L698.1,562.9L698.6,571.3L700.4,574.5L706.1,574.0L707.4,568.7L712.4,571.9L713.1,577.2L710.9,581.0L708.3,577.5L703.3,577.7L705.3,584.0L700.7,590.1L700.3,593.7L702.0,597.4L707.6,601.2L707.5,606.8L705.5,608.5L706.6,610.8L714.9,609.0L715.5,612.1L718.6,613.7L723.3,612.2L726.1,617.5L730.9,618.3L732.0,622.3L734.8,617.1L737.8,616.0L737.5,613.1L740.4,612.5L741.0,607.3L744.8,602.9L741.0,597.9L742.3,596.0L753.7,601.3L752.0,593.1L746.1,587.7L745.6,581.5L738.7,577.1L736.8,560.9L729.1,535.7L719.2,529.3L716.2,524.1L713.2,523.7L713.9,516.0L707.6,518.2L706.5,525.6L701.7,527.2L700.5,533.1L697.5,534.0L697.6,529.9L694.2,526.7L688.8,531.9Z"/>
    <path id="江西" d="M697.7,655.5L694.9,651.1L688.1,650.8L686.2,644.4L683.8,644.8L683.3,642.6L681.1,644.9L681.7,647.8L675.9,651.4L674.9,648.2L678.6,642.0L675.1,638.9L669.4,645.9L663.9,647.5L658.0,644.7L654.7,650.1L652.1,648.5L652.7,652.7L650.5,651.2L648.4,653.6L649.7,653.8L648.9,655.5L640.2,656.3L639.4,659.5L634.9,662.9L635.3,666.7L637.9,669.3L636.9,676.0L639.4,681.8L635.5,685.6L636.0,688.8L632.0,691.2L629.4,700.7L630.0,705.5L633.8,704.6L632.3,711.6L634.6,715.2L633.6,722.2L637.3,724.5L635.1,734.7L639.2,734.6L635.8,738.0L634.8,752.0L636.2,756.6L643.7,752.6L646.6,756.1L646.5,759.8L641.5,763.9L638.5,771.1L642.0,775.3L656.6,767.8L660.7,773.8L662.9,773.4L661.6,768.9L664.1,763.7L663.1,757.6L665.4,755.0L667.2,741.8L670.7,739.3L672.5,735.6L671.4,731.1L674.7,726.7L673.2,724.7L673.4,717.9L680.8,711.5L682.6,706.9L680.1,698.7L687.8,690.0L691.0,694.4L692.7,690.9L700.1,687.3L699.5,684.2L702.0,681.6L700.3,669.7L695.4,662.7Z"/>
    <path id="浙江" d="M701.3,682.5L706.7,683.7L705.7,690.3L708.3,702.7L713.7,703.7L718.6,697.5L721.1,706.5L728.4,703.4L732.6,710.1L736.0,695.1L738.4,692.1L742.1,693.9L739.2,690.8L740.2,687.2L743.2,688.7L746.5,682.2L748.6,683.4L749.5,679.6L747.3,673.6L750.8,668.5L748.3,661.1L753.6,663.9L754.1,651.0L751.6,649.2L756.2,643.2L750.0,641.0L740.7,628.2L743.3,623.1L739.2,620.4L739.1,616.0L734.8,617.1L732.0,622.3L730.9,618.3L726.1,617.5L723.3,612.2L719.7,612.3L716.3,624.9L713.2,625.9L715.6,631.6L707.9,633.1L708.1,642.3L705.9,647.1L695.5,660.0L696.3,665.2L701.2,673.0Z M756.5,641.1L758.9,642.2L759.2,640.3L753.1,636.8L754.5,641.0Z M753.3,621.8L756.1,626.3Z M756.8,649.3L755.3,646.1Z M756.5,632.7L755.0,633.7L757.5,635.1Z M759.6,643.4L760.3,645.0L760.2,642.0Z M751.9,641.3L753.1,640.9L751.9,638.3Z M760.5,630.8L758.2,629.3Z M758.0,644.6L758.7,646.5Z"/>
    <path id="福建" d="M709.7,763.5L708.1,760.5L709.5,758.6L708.4,756.5L710.8,757.6L711.4,762.4L711.6,757.3L713.7,758.9L715.3,756.6L711.8,753.3L712.9,751.3L714.9,752.7L715.0,750.0L716.4,750.7L718.5,754.6L719.7,751.3L722.5,751.6L721.3,746.5L719.7,751.2L716.8,747.3L718.6,746.0L720.4,738.1L718.6,734.2L723.8,729.8L721.3,724.1L718.2,723.2L719.5,720.6L722.6,722.7L723.6,719.2L725.4,719.6L721.9,725.6L726.5,722.8L725.3,717.3L731.3,710.5L730.9,707.6L728.4,703.4L721.1,706.5L718.6,697.5L713.7,703.7L708.3,702.7L705.5,682.0L701.1,682.5L699.5,684.2L700.1,687.3L692.7,690.9L691.0,694.4L687.8,690.0L684.2,692.7L684.4,695.3L680.1,698.7L682.6,706.9L680.8,711.5L673.4,717.9L674.2,729.3L671.4,731.1L672.5,735.6L670.7,739.3L667.2,741.8L665.4,755.0L663.1,757.6L663.3,763.7L668.9,767.8L671.1,765.7L673.1,772.4L677.3,771.2L676.5,773.8L680.0,782.8L679.8,790.7L684.5,798.1L686.9,797.3L697.2,780.6L695.6,776.9L696.7,773.2L702.5,772.3L704.0,774.4L706.5,768.2L704.5,766.6L709.5,765.7L708.5,764.4Z M701.0,774.6L699.0,777.1L701.6,777.1Z M697.9,774.8L697.0,773.5L695.9,775.8Z M716.7,757.9L718.1,757.6Z"/>
    <path id="上海" d="M737.8,616.0L739.1,616.0L739.2,619.1L739.6,619.5L739.2,620.4L739.9,620.9L740.7,619.9L741.3,620.6L741.1,621.8L742.5,621.6L743.4,624.3L744.6,624.2L746.9,621.9L749.4,620.8L752.7,620.9L753.3,621.8L754.0,619.7L753.8,616.0L750.0,609.0L744.4,603.9L742.9,604.4L741.0,607.3L741.4,609.7L740.6,609.3L740.2,610.4L740.4,612.5L737.5,613.1L737.2,613.9L737.7,614.1Z M753.7,601.3L748.2,599.2L745.7,597.6L744.1,595.2L742.3,596.0L741.0,597.9L744.8,602.9L745.7,602.0L751.4,605.7L752.5,605.9L753.8,605.1Z M751.1,608.3L750.3,606.5L746.8,604.6L750.6,608.7Z M751.2,607.7L751.7,609.2L755.5,610.2L755.9,608.9L751.8,607.3L751.0,607.2Z M753.3,611.1L753.5,612.5L754.0,612.5L754.2,611.0Z M752.4,610.5L752.7,611.6L753.0,610.7Z M748.6,605.5L747.9,604.7Z"/>
    <path id="陕西" d="M582.0,528.6L579.8,526.3L579.8,521.7L585.4,503.4L583.0,490.4L583.8,480.2L582.3,477.9L582.1,469.5L586.6,463.0L586.0,459.4L588.2,456.4L587.3,451.2L584.2,446.7L584.0,441.0L589.9,432.9L590.9,422.0L594.9,413.9L592.2,411.5L593.2,406.9L589.3,409.2L586.8,414.6L578.7,410.2L579.6,414.4L575.0,414.6L575.3,418.6L562.4,435.1L560.7,440.6L562.6,445.1L560.6,447.5L558.6,444.5L558.3,453.4L548.8,454.9L542.1,448.4L536.6,455.2L536.6,472.2L545.4,476.1L547.7,480.0L550.1,479.0L556.4,485.0L557.0,493.9L554.2,497.5L555.9,510.8L546.1,512.8L543.0,511.2L541.7,512.8L544.8,518.8L539.7,521.0L535.7,521.7L530.5,516.5L525.2,516.8L525.7,524.4L521.8,529.1L527.8,534.2L526.9,537.3L525.0,536.1L525.8,539.6L523.3,545.4L525.8,553.5L516.8,552.6L514.6,558.3L512.9,558.3L516.7,562.6L516.0,567.8L509.7,570.7L511.2,574.9L517.8,570.9L519.0,574.4L523.4,577.0L528.0,574.0L533.0,574.7L533.2,578.8L535.9,582.2L538.5,579.1L538.8,581.8L542.1,582.3L546.5,588.4L553.8,585.4L565.8,598.9L570.3,598.7L570.8,589.4L568.9,584.7L571.0,577.4L576.7,578.7L579.5,576.6L578.0,571.7L573.3,570.5L573.4,566.0L568.1,563.9L569.2,561.8L581.4,563.7L584.4,561.4L586.8,565.2L591.6,559.5L591.3,553.5L585.1,545.9L585.9,539.3L582.9,537.3L583.9,535.0Z"/>
    <path id="湖南" d="M606.4,769.1L608.5,766.2L608.8,758.3L615.8,759.5L619.0,765.3L620.8,764.5L621.3,757.9L618.7,754.5L624.5,750.2L629.5,755.3L634.8,752.0L635.8,738.0L639.2,734.6L635.1,734.7L637.3,724.5L633.6,722.2L634.6,715.2L632.3,711.6L633.8,704.6L630.0,705.5L629.4,700.7L632.0,691.2L636.0,688.8L635.5,685.6L639.4,681.8L636.9,676.0L637.9,669.3L634.8,664.0L631.1,663.3L629.9,659.0L632.0,654.3L630.2,652.4L631.8,651.0L628.9,648.7L629.3,644.5L622.0,654.5L619.5,650.4L621.2,646.3L610.3,652.6L609.6,649.1L602.4,642.7L597.1,642.9L589.0,637.7L583.8,639.4L585.9,646.3L584.7,647.8L581.9,649.7L578.1,645.9L574.5,646.3L568.0,652.2L565.4,659.7L566.0,671.3L564.5,674.1L566.3,675.4L565.6,681.3L567.4,683.0L566.1,690.6L568.4,700.1L566.1,703.6L563.7,703.0L558.5,711.9L560.8,713.5L568.6,710.7L569.8,715.3L568.1,716.6L570.4,719.9L565.8,721.3L567.6,725.4L565.6,730.4L568.5,730.7L568.3,737.0L572.4,738.6L571.8,741.3L573.6,741.3L573.2,738.4L576.0,733.6L580.2,739.3L585.5,730.2L588.8,732.1L590.8,728.9L595.3,731.7L594.0,739.5L598.4,741.8L595.8,745.2L596.1,750.0L591.2,758.8L590.8,763.3L592.7,764.1L595.3,759.1L598.1,762.2L597.9,770.9L599.7,771.4L601.7,767.9Z"/>
    <path id="广西" d="M568.8,737.6L566.6,744.9L563.0,743.1L560.1,745.3L562.8,745.2L562.0,750.3L557.0,747.6L556.1,755.2L552.0,749.7L549.2,751.9L548.5,757.6L543.3,759.7L541.8,755.0L539.0,757.5L535.0,747.9L531.5,752.1L531.6,757.1L519.3,763.9L519.7,768.6L517.5,771.7L505.5,762.9L498.4,772.1L495.4,769.3L495.3,774.1L498.1,779.3L498.9,775.9L504.0,777.0L506.2,785.6L517.9,785.0L520.0,790.1L519.3,797.6L517.2,800.6L515.0,798.7L511.8,801.7L512.7,803.5L510.2,805.8L510.9,809.9L515.4,813.6L519.5,811.8L522.6,815.0L525.0,812.8L529.6,816.3L525.5,824.8L527.4,829.6L527.5,836.9L532.0,837.2L532.3,840.3L536.6,842.4L537.7,845.8L544.8,844.4L548.4,847.9L550.4,845.7L550.2,848.3L556.1,843.7L563.7,846.5L562.2,849.2L563.7,850.8L569.5,849.7L570.7,846.7L573.2,849.2L572.6,845.3L575.2,844.0L575.6,839.7L582.2,838.5L581.6,831.2L586.5,831.7L588.1,829.0L586.6,824.3L587.5,822.3L596.5,814.2L597.1,800.1L600.3,795.9L600.9,791.2L603.2,791.9L604.7,788.5L604.2,781.6L606.9,777.7L605.0,771.8L606.4,769.1L601.7,767.9L599.7,771.4L597.6,770.4L598.1,762.2L596.8,759.6L595.3,759.1L592.7,764.1L590.8,763.3L591.2,758.8L596.1,750.0L595.8,745.2L598.4,741.8L594.0,739.5L595.3,731.7L590.8,728.9L588.8,732.1L585.5,730.2L580.2,739.3L576.0,733.6L573.1,741.6L571.0,737.2Z"/>
    <path id="香港" d="M636.1,823.6L634.4,825.7L634.5,827.0L636.0,827.4L635.0,828.6L635.2,828.1L634.1,828.4L633.3,830.3L633.4,831.3L635.4,830.3L635.6,830.9L636.7,828.0L637.8,828.6L637.4,829.3L638.1,830.4L639.6,831.0L639.5,828.7L640.3,829.5L639.8,826.5L640.4,826.5L640.9,827.6L641.5,827.1L641.7,825.4L640.5,824.2L638.9,825.5L638.7,825.0L639.4,825.1L640.7,823.7L640.2,823.8L639.5,822.6L639.1,823.0L638.1,822.3Z M637.8,830.7L637.5,830.1L637.4,831.6L637.9,831.6Z M640.2,826.8L640.3,827.6L640.6,827.3Z"/>
    <path id="澳门" d="M629.0,833.3L629.8,832.7L629.1,830.8L628.8,831.7Z"/>
    <path id="贵州" d="M565.7,677.5L562.9,685.1L558.2,684.4L557.3,677.3L556.7,681.4L555.4,681.2L556.2,674.4L551.7,673.0L551.3,663.2L544.8,666.1L543.1,660.3L538.5,660.2L537.7,668.9L535.6,671.0L535.1,668.4L532.2,668.0L531.8,670.6L529.4,671.1L530.0,674.3L527.7,678.6L525.5,677.7L526.8,673.7L524.2,669.3L524.7,676.3L522.8,677.9L516.7,671.0L515.5,675.1L511.6,676.9L511.8,681.7L514.6,682.1L515.6,686.7L519.3,685.6L521.1,687.9L522.2,693.0L520.8,695.2L511.6,697.7L507.6,695.7L505.1,705.0L503.4,703.8L500.5,706.9L495.6,706.0L493.0,702.6L490.1,707.5L486.6,703.1L481.7,712.5L484.2,715.2L484.1,724.1L488.6,725.8L489.4,722.8L493.9,721.1L497.7,729.2L492.2,746.9L499.8,757.0L496.7,761.3L498.1,762.8L495.4,769.3L498.4,772.1L505.5,762.9L517.5,771.7L519.7,768.6L519.3,763.9L531.6,757.1L531.5,752.1L535.0,747.9L539.0,757.5L541.8,755.0L544.4,759.9L548.5,757.6L549.2,751.9L551.4,749.9L556.1,755.2L557.0,747.6L562.0,750.3L562.8,745.2L560.1,745.3L563.0,743.1L566.6,744.9L569.2,735.2L568.5,730.7L565.6,730.4L567.6,725.4L565.8,721.3L568.8,719.8L569.3,712.5L567.8,710.2L560.8,713.5L558.5,711.9L563.7,703.0L566.1,703.6L568.4,700.1L566.5,694.9L567.4,683.0L565.7,681.9Z M568.7,718.1L569.3,720.1Z"/>
    <path id="重庆" d="M522.7,676.7L523.2,675.7L524.3,676.6L524.7,676.3L524.1,675.3L525.0,673.0L524.0,671.0L524.2,669.3L526.8,673.7L526.3,673.8L526.3,676.2L525.6,676.8L525.5,677.7L526.6,677.3L527.7,678.6L528.2,678.2L528.1,676.0L528.7,675.8L528.4,674.8L528.8,674.3L529.1,675.2L530.0,674.3L530.4,672.6L530.0,672.7L529.4,671.1L530.9,669.8L531.3,670.9L531.8,670.6L531.7,668.8L532.2,668.0L535.1,668.4L535.2,670.7L535.6,671.0L537.0,668.9L537.7,668.9L538.5,666.5L537.4,664.9L537.9,664.2L537.5,662.9L538.1,662.9L538.3,662.0L537.9,660.7L538.5,660.2L539.2,660.9L540.4,659.9L540.7,661.5L542.4,661.7L543.1,660.3L544.0,661.8L543.6,664.0L544.2,664.3L544.0,665.6L544.8,666.1L545.1,665.0L547.2,664.2L547.8,663.1L550.6,664.2L550.9,662.9L551.3,663.2L552.0,669.7L552.5,670.0L551.7,673.0L554.2,674.3L555.3,673.5L556.2,674.4L555.8,675.2L555.8,676.4L555.3,676.6L555.8,678.9L555.4,681.2L556.7,681.4L556.5,680.8L557.1,679.8L556.3,678.4L557.3,677.3L558.4,679.2L558.1,682.2L557.6,682.7L557.7,684.0L558.2,684.4L559.0,683.6L559.5,684.7L560.5,684.3L561.7,685.6L562.0,684.2L562.9,685.1L562.8,683.5L563.9,681.0L563.9,679.4L564.4,678.1L565.7,677.5L565.7,676.4L566.3,675.4L566.2,674.4L564.6,675.0L564.5,674.1L565.6,673.2L565.3,672.7L566.0,672.0L566.0,671.3L565.2,670.6L565.1,668.1L566.3,664.1L565.2,663.1L564.8,661.6L563.7,661.1L563.2,659.9L563.7,658.6L563.2,658.1L563.3,656.4L562.5,655.3L562.1,656.4L560.4,657.2L560.5,654.6L559.6,653.7L560.1,650.4L559.7,650.6L559.9,649.8L559.3,649.1L558.4,649.7L558.4,648.3L557.9,649.3L557.0,648.4L556.6,644.3L555.7,644.1L554.3,647.9L553.3,647.1L553.1,645.3L552.3,644.7L554.4,643.6L554.7,641.2L554.4,639.4L555.4,634.5L552.8,631.6L553.1,628.8L554.4,628.6L555.2,629.4L556.4,627.6L556.3,626.7L557.0,626.5L557.8,628.7L558.5,628.3L558.8,628.8L562.2,624.8L563.3,625.0L563.1,627.0L563.7,628.1L566.0,625.4L567.0,627.3L566.6,628.1L566.9,628.9L568.1,626.2L569.5,624.6L570.1,625.0L571.3,622.2L574.9,618.8L576.5,619.2L576.7,620.6L577.6,621.3L579.0,616.9L578.5,616.7L578.2,614.2L579.4,612.5L578.2,606.4L577.2,606.4L576.2,604.8L575.6,604.9L576.0,604.0L574.0,602.8L572.4,603.0L572.9,601.7L572.4,599.3L569.7,598.6L565.8,598.9L565.4,597.9L565.7,596.9L564.5,596.4L564.4,595.5L562.9,593.7L560.2,592.4L557.7,589.4L556.8,589.5L554.3,587.1L552.7,587.3L552.4,588.2L553.5,589.8L553.2,590.5L551.9,590.4L552.0,592.7L551.3,592.1L550.6,592.8L551.9,595.4L554.7,597.9L554.3,598.5L554.9,600.2L553.4,600.9L552.6,602.0L552.5,603.1L551.8,603.2L551.9,603.9L549.6,604.4L550.1,605.1L550.0,606.4L549.1,607.3L549.6,608.2L547.4,610.2L547.3,611.1L547.9,610.7L548.1,611.4L546.9,613.7L547.7,615.1L546.6,616.8L545.9,616.7L546.0,618.4L546.7,618.6L544.6,621.4L543.3,620.9L542.9,619.2L541.5,620.8L539.1,620.3L539.4,621.0L538.3,622.7L539.6,625.1L537.4,629.4L535.3,635.6L532.8,639.8L532.3,639.9L531.7,638.7L530.7,640.2L529.6,639.6L528.8,640.4L528.0,640.1L526.2,635.0L526.7,634.8L525.5,633.1L523.7,633.3L523.5,634.6L521.7,635.0L521.6,635.8L520.6,636.2L519.1,632.9L519.2,633.4L517.7,631.7L516.3,631.7L514.1,630.4L513.6,632.4L513.0,632.9L513.0,634.6L511.6,634.1L511.6,635.1L512.2,635.7L510.3,637.1L511.2,636.9L510.9,637.6L513.5,640.3L512.8,642.6L513.3,643.4L512.9,644.7L511.0,645.2L510.9,647.0L510.2,647.9L509.5,647.7L509.4,648.7L508.6,648.4L506.8,651.2L506.9,652.2L507.3,654.4L508.1,654.1L507.9,654.9L508.9,655.4L508.6,657.6L509.3,657.3L509.2,658.1L510.1,658.7L511.7,658.3L512.0,659.0L512.7,658.2L512.8,660.9L513.5,662.0L513.2,662.6L513.6,663.5L513.4,664.2L514.2,666.7L515.9,667.1L517.2,665.8L517.8,666.3L517.9,667.5L520.2,667.5L521.1,668.9L520.8,669.6L522.3,675.3L522.1,676.1Z M563.2,626.5L563.2,625.9Z"/>
    <path id="四川" d="M445.6,709.1L445.2,713.4L450.8,719.6L449.0,723.9L452.5,732.9L459.6,736.7L466.4,729.5L468.5,733.2L472.7,729.3L471.0,706.7L480.0,694.6L481.3,683.9L485.8,681.9L485.4,673.3L493.9,674.3L491.4,676.5L494.4,683.7L492.1,688.3L496.1,693.5L503.3,687.2L506.4,689.6L506.9,696.8L521.7,694.2L520.2,686.3L515.6,686.7L511.8,681.7L511.6,676.9L516.7,671.0L522.8,677.9L520.2,667.5L514.2,666.7L512.7,658.2L507.3,654.4L506.8,651.2L513.3,643.4L510.3,637.1L514.6,630.1L520.6,636.2L525.5,633.1L528.0,640.1L532.9,639.7L539.6,625.1L539.1,620.3L544.6,621.4L549.6,604.4L554.9,600.2L550.6,592.8L554.3,586.0L546.5,588.4L538.5,579.1L535.1,581.5L533.0,574.7L523.4,577.0L517.8,570.9L511.2,574.9L509.3,569.3L509.0,574.1L505.1,576.9L497.1,575.9L491.9,571.6L493.8,559.6L490.2,553.0L475.2,548.0L475.4,541.3L471.5,535.6L460.0,544.1L465.0,554.4L460.9,562.2L455.4,564.7L455.7,552.9L452.5,565.1L445.0,562.2L445.5,575.9L438.6,575.5L437.9,579.2L434.3,573.6L430.0,576.4L426.5,566.5L424.2,574.1L417.5,570.6L410.0,560.8L404.7,541.1L393.8,540.1L393.2,545.2L389.4,547.7L390.1,552.8L395.1,557.6L389.1,570.1L391.1,576.0L402.0,583.6L404.9,596.1L411.9,607.3L407.7,611.7L412.9,622.1L416.0,679.2L419.1,685.1L419.5,676.2L424.2,668.9L431.0,681.6L428.7,686.0L433.0,696.3L438.4,691.4Z"/>
    <path id="云南" d="M506.9,696.8L506.4,689.6L503.3,687.2L495.1,692.5L492.1,688.3L494.2,683.0L491.3,679.7L493.9,674.3L485.4,673.3L485.8,681.9L481.3,683.9L480.0,694.6L471.0,706.7L472.4,730.0L468.5,733.2L466.4,729.5L455.5,737.2L438.4,691.4L433.0,696.3L428.7,686.0L431.0,681.6L424.2,668.9L418.1,684.0L415.2,659.8L413.3,660.2L413.1,669.3L408.0,666.2L409.3,684.0L404.5,686.8L403.2,680.2L400.8,686.1L403.4,701.3L405.3,697.7L409.2,700.5L410.3,723.2L409.4,735.3L407.3,735.5L409.2,741.9L403.4,749.5L401.3,747.6L400.8,753.4L394.6,760.8L395.7,766.5L392.0,769.1L391.8,776.3L393.8,776.1L395.1,783.1L391.7,788.9L411.7,783.5L408.6,792.0L411.8,796.4L411.9,806.4L421.4,809.9L421.9,813.3L418.2,817.9L419.2,823.9L415.9,832.0L427.9,834.6L428.2,843.2L431.8,848.9L436.9,849.3L445.0,841.5L446.4,854.6L454.5,856.7L455.4,845.3L451.3,830.1L453.1,824.3L462.0,825.7L465.5,817.0L473.2,825.2L477.5,816.2L480.6,821.5L482.3,816.5L487.1,823.7L489.3,816.2L493.1,819.1L498.5,815.8L500.6,807.5L507.2,802.0L510.4,807.0L511.8,801.7L519.3,797.6L520.0,790.1L517.2,784.2L506.2,785.6L504.0,777.0L496.1,776.8L494.8,771.2L499.8,757.0L492.2,746.9L497.4,727.8L493.9,721.1L484.9,725.4L484.2,715.2L481.7,712.5L486.6,703.1L490.1,707.5L493.0,702.6L496.6,706.5L505.1,705.0Z"/>
    <path id="宁夏" d="M536.0,467.6L536.9,466.6L536.7,465.2L536.0,464.4L536.6,464.2L535.8,461.8L536.2,458.3L537.1,457.4L537.5,455.7L536.6,455.2L538.2,453.8L537.7,453.2L539.2,452.8L539.4,451.4L541.2,451.1L541.8,449.4L539.3,447.0L538.1,446.9L538.5,445.7L534.8,441.9L531.1,442.4L526.5,440.0L524.3,437.8L526.1,436.1L526.8,434.2L527.7,428.1L531.3,422.7L531.5,419.9L529.9,418.6L529.0,416.0L529.1,413.5L528.3,411.9L527.3,412.5L526.1,412.1L524.8,414.6L523.1,414.1L521.3,414.9L521.4,417.7L519.3,417.5L518.1,422.0L516.8,423.5L517.1,424.7L515.8,426.3L515.0,430.0L515.3,431.2L514.5,436.7L515.2,438.4L513.9,441.1L513.7,442.7L514.8,445.5L513.6,450.5L511.6,451.1L511.2,453.0L507.0,452.9L502.8,455.9L494.0,457.5L493.6,458.7L491.8,459.6L494.1,459.2L497.6,460.1L497.4,461.1L498.1,462.0L496.8,462.7L496.5,464.1L497.0,465.1L499.1,464.0L500.2,464.9L501.7,469.1L504.8,470.2L505.0,472.7L506.0,472.6L507.3,474.9L507.1,476.3L506.5,476.1L505.4,477.3L506.5,480.7L506.1,480.9L507.7,482.3L508.3,485.4L509.4,487.3L509.2,489.0L510.0,490.8L509.7,492.0L508.8,491.9L507.5,493.6L507.2,495.8L507.6,497.5L508.3,497.9L507.9,498.2L508.0,499.5L508.7,498.8L509.5,501.1L511.2,501.4L512.3,500.5L513.6,501.1L512.6,501.8L514.5,504.8L514.9,506.9L515.7,505.5L517.4,506.2L517.5,506.8L518.4,506.4L518.2,507.9L518.9,510.0L519.7,508.1L520.7,508.8L520.8,510.1L522.6,513.0L522.6,512.1L524.2,511.2L524.6,509.9L524.4,507.1L523.7,506.0L524.3,504.8L523.6,502.0L524.7,500.8L526.4,500.7L526.6,501.4L527.2,501.1L528.3,502.0L528.3,501.1L529.1,501.5L529.3,500.6L530.0,500.8L530.0,500.0L530.5,500.3L530.9,499.1L529.8,497.2L531.1,496.1L531.1,495.6L530.5,495.8L531.2,494.7L530.9,494.1L531.4,492.2L531.0,491.0L529.5,488.8L528.6,489.2L527.3,487.8L525.5,487.3L525.2,488.2L524.7,487.9L524.2,487.0L524.6,486.8L524.5,484.1L524.9,483.0L522.6,480.3L523.8,480.8L524.1,480.2L523.8,479.2L524.5,479.1L524.5,477.7L525.0,477.6L524.8,477.0L526.0,476.1L526.7,476.8L526.5,476.1L526.9,474.4L525.2,470.4L526.0,471.5L526.0,470.8L526.7,470.9L527.1,469.6L526.2,466.9L528.3,467.6L528.7,466.2L530.4,467.6L530.6,466.3L532.0,467.4L532.5,467.4L532.4,466.6L533.4,467.2L534.7,466.5Z M517.9,506.9L515.7,507.8L515.6,508.7L518.0,507.7Z"/>
    <path id="台湾" d="M731.1,825.2L732.9,827.1L734.0,830.0L734.1,835.1L734.9,837.7L737.4,838.4L737.3,836.3L737.9,835.1L738.0,828.5L739.0,823.0L739.8,820.1L742.4,817.1L744.1,812.9L744.8,809.5L745.7,808.2L745.4,806.8L746.4,803.7L749.1,787.0L748.8,784.8L751.3,778.9L752.4,774.2L751.8,766.7L754.3,762.7L753.3,762.0L752.9,759.4L750.3,758.8L748.5,755.6L747.2,755.2L745.9,756.1L744.8,758.9L742.4,759.6L739.7,761.8L738.0,766.0L737.7,768.4L734.7,772.5L728.1,791.0L727.1,791.8L726.0,794.4L726.1,803.2L724.8,809.7L726.5,811.5L727.4,818.3L728.5,822.3Z M719.2,798.1L719.9,798.2L719.7,796.9L718.1,797.3L718.2,799.3Z M746.8,833.8L746.8,834.7L748.1,836.0L747.8,833.9Z M775.5,745.0L776.4,745.1L776.5,744.3L776.0,744.0Z M717.2,796.3L717.2,797.5L716.7,798.0L717.4,797.9Z M717.9,795.3L718.7,796.4L718.8,795.4Z M746.2,819.4L746.9,820.5L746.9,819.4Z M791.7,740.7L792.4,740.6L792.1,739.8Z M729.7,827.9L730.3,827.6Z M778.8,740.5L779.4,740.4L779.1,739.8Z M715.9,806.2L716.1,807.0L716.4,806.3Z M755.5,750.6L755.7,751.4L755.9,750.7Z M717.0,802.1L717.3,803.0Z M755.1,747.5L755.4,747.9L755.5,747.2Z"/>
    <path id="海南" d="M578.0,884.1L576.4,885.2L572.9,885.2L572.2,884.3L571.3,884.4L569.4,886.1L569.0,887.8L566.1,886.7L564.0,889.8L563.8,891.9L563.0,892.3L562.3,894.0L558.1,899.3L556.3,900.6L555.6,905.7L556.2,911.0L555.6,912.2L555.6,913.8L556.5,915.4L556.6,917.1L556.3,921.6L557.0,922.6L559.8,923.3L560.8,925.8L563.2,925.6L563.7,927.0L565.9,927.0L566.9,928.3L570.3,930.0L572.7,928.8L573.2,925.2L577.5,924.3L578.1,921.1L580.1,918.6L583.8,917.6L583.8,915.2L585.0,914.4L585.6,905.4L586.4,902.1L587.2,899.9L588.9,898.1L590.0,895.6L592.1,894.2L591.9,890.5L590.7,884.3L588.4,883.8L587.4,882.9L586.6,880.7L584.2,882.9L581.1,882.1L580.7,883.3L578.6,882.9Z M634.1,1187.0L635.5,1188.8L636.5,1188.7L641.1,1186.2L641.9,1183.2L643.6,1180.8L643.6,1178.8L641.8,1178.6L639.6,1180.6L638.8,1182.6Z M568.5,1193.4L568.5,1194.1L569.2,1194.0L572.1,1189.4L575.7,1189.1L573.7,1187.9L571.3,1188.2Z M672.5,1119.0L672.2,1121.1L674.8,1120.5L674.7,1119.7L672.9,1120.1L673.0,1118.2Z M624.8,1174.4L625.4,1173.1L625.9,1172.7L625.1,1174.5L626.0,1173.2L626.6,1170.4L626.1,1170.0L626.1,1171.6Z M575.5,1181.1L575.5,1181.7L576.2,1182.0L577.2,1181.2L577.6,1178.7L575.7,1180.1Z M690.5,1002.2L690.8,1004.1L692.3,1004.0L690.8,1003.5L691.1,1001.4L691.7,1002.6L692.5,1002.8L691.1,1001.1L690.6,1001.3Z M583.2,1174.6L583.4,1175.7L584.6,1175.1L585.3,1173.6L584.8,1173.2Z M600.8,976.0L599.8,977.2L599.6,978.3L600.3,978.5L601.4,977.1L600.2,978.0L601.3,975.9Z M662.9,1135.7L663.3,1137.2L663.8,1136.7L664.2,1134.0L663.3,1134.0Z M652.9,1168.0L653.1,1169.0L653.9,1169.6L654.7,1169.8L655.1,1168.7Z M642.6,1108.2L642.7,1108.8L643.2,1107.9L644.0,1108.2L644.4,1107.8L644.3,1106.5Z M613.1,982.3L615.1,981.3L614.7,980.6L612.9,981.2L612.7,982.2Z M646.0,1104.1L647.5,1101.7L647.0,1101.6Z M684.0,1111.8L686.1,1112.3L686.3,1111.5L685.5,1110.5L684.4,1110.7Z M633.2,905.2L634.4,904.9L634.5,903.7L632.8,903.7Z M612.1,975.1L611.7,975.8L613.9,975.3L614.0,974.7Z M635.3,1156.1L636.2,1158.3L636.5,1157.5Z M602.1,977.5L603.3,976.8L603.3,975.9L601.8,976.2L602.9,976.2L602.9,976.9Z M598.1,956.0L599.2,955.3L598.4,956.5L599.5,955.8L599.2,955.0Z M601.1,1185.9L601.7,1186.0L602.3,1184.7L602.0,1184.0Z M643.2,1174.5L643.5,1174.9L644.9,1173.8Z M613.5,970.9L614.7,969.5L613.4,970.2Z M614.7,1236.9L615.1,1239.3L615.5,1238.7L615.2,1236.7Z M599.2,1188.5L599.9,1188.6L600.3,1187.4L599.6,1187.0Z M599.4,1182.1L599.9,1183.0L600.4,1181.3L600.2,1180.8Z M691.5,1109.8L691.9,1110.3L692.4,1108.2L691.9,1108.2Z M634.1,1177.3L634.2,1178.3L635.2,1178.8L634.8,1177.0Z M604.9,1175.7L606.3,1175.8L606.2,1175.2L605.4,1174.8Z M657.9,1131.1L658.6,1131.8L659.1,1131.2L658.1,1130.3Z M605.7,974.4L607.2,974.4L607.1,973.8Z M630.3,1153.6L631.7,1152.9Z M642.9,1111.1L644.0,1109.7L643.6,1109.3Z M606.0,1278.7L607.0,1279.2L607.1,1278.3L606.5,1277.6Z M609.1,1278.0L609.6,1278.8L610.2,1278.2L609.9,1277.0Z M639.2,1122.7L640.5,1121.7L640.3,1121.3Z M646.1,978.1L647.7,977.4L646.1,977.4Z M615.7,1248.0L615.7,1249.3L616.7,1248.8L616.1,1247.7Z M615.1,1241.6L615.5,1242.1L616.3,1240.7L615.3,1240.8Z M644.5,1156.8L645.7,1155.9L644.8,1155.9Z"/>
  </g>
  <g id="labels">
    <text x="830.2" y="190.9" text-anchor="middle" dominant-baseline="middle">黑龙江</text>
    <text x="466.3" y="481.0" text-anchor="middle" dominant-baseline="middle">甘肃</text>
    <text x="821.1" y="309.4" text-anchor="middle" dominant-baseline="middle">吉林</text>
    <text x="694.9" y="286.5" text-anchor="middle" dominant-baseline="middle">内蒙古</text>
    <text x="704.7" y="486.2" text-anchor="middle" dominant-baseline="middle">山东</text>
    <text x="682.6" y="422.1" text-anchor="middle" dominant-baseline="middle">河北</text>
    <text x="671.2" y="386.8" class="fs22" text-anchor="middle" dominant-baseline="middle">北京</text>
    <text x="696.2" y="421.8" class="fs22" text-anchor="middle" dominant-baseline="middle">天津</text>
    <text x="264.7" y="604.2" text-anchor="middle" dominant-baseline="middle">西藏</text>
    <text x="185.4" y="376.2" text-anchor="middle" dominant-baseline="middle">新疆</text>
    <text x="637.3" y="542.9" text-anchor="middle" dominant-baseline="middle">河南</text>
    <text x="683.5" y="591.1" text-anchor="middle" dominant-baseline="middle">安徽</text>
    <text x="613.8" y="452.1" text-anchor="middle" dominant-baseline="middle">山西</text>
    <text x="604.7" y="619.5" text-anchor="middle" dominant-baseline="middle">湖北</text>
    <text x="377.8" y="514.4" text-anchor="middle" dominant-baseline="middle">青海</text>
    <text x="758.0" y="370.9" text-anchor="middle" dominant-baseline="middle">辽宁</text>
    <text x="625.1" y="805.1" text-anchor="middle" dominant-baseline="middle">广东</text>
    <text x="716.9" y="566.8" text-anchor="middle" dominant-baseline="middle">江苏</text>
    <text x="661.4" y="703.1" text-anchor="middle" dominant-baseline="middle">江西</text>
    <text x="726.5" y="662.0" text-anchor="middle" dominant-baseline="middle">浙江</text>
    <text x="700.7" y="737.5" text-anchor="middle" dominant-baseline="middle">福建</text>
    <text x="757.8" y="617.2" class="fs22" text-anchor="middle" dominant-baseline="middle">上海</text>
    <text x="557.6" y="511.1" text-anchor="middle" dominant-baseline="middle">陕西</text>
    <text x="600.4" y="705.5" text-anchor="middle" dominant-baseline="middle">湖南</text>
    <text x="554.4" y="786.2" text-anchor="middle" dominant-baseline="middle">广西</text>
    <text x="653.9" y="836.8" class="fs22" text-anchor="middle" dominant-baseline="middle">香港</text>
    <text x="627.1" y="848.0" class="fs22" text-anchor="middle" dominant-baseline="middle">澳门</text>
    <text x="530.8" y="714.7" text-anchor="middle" dominant-baseline="middle">贵州</text>
    <text x="549.9" y="644.6" class="fs22" text-anchor="middle" dominant-baseline="middle">重庆</text>
    <text x="474.8" y="624.2" text-anchor="middle" dominant-baseline="middle">四川</text>
    <text x="454.8" y="750.2" text-anchor="middle" dominant-baseline="middle">云南</text>
    <text x="520.4" y="468.6" class="fs22" text-anchor="middle" dominant-baseline="middle">宁夏</text>
    <text x="740.3" y="793.7" class="fs22" text-anchor="middle" dominant-baseline="middle">台湾</text>
    <text x="573.2" y="908.2" class="fs22" text-anchor="middle" dominant-baseline="middle">海南</text>
  </g>
  <text id="score" x="48" y="940">分数: 0</text>
  <g id="legend">
    <path class="legend-swatch" data-level="5" fill="#C0394A" d="M994 420h120v48H994Z"/>
    <path class="legend-swatch" data-level="4" fill="#D96B42" d="M994 468h120v48H994Z"/>
    <path class="legend-swatch" data-level="3" fill="#E2B24A" d="M994 516h120v48H994Z"/>
    <path class="legend-swatch" data-level="2" fill="#5E9E98" d="M994 564h120v48H994Z"/>
    <path class="legend-swatch" data-level="1" fill="#8FA6C4" d="M994 612h120v48H994Z"/>
    <path class="legend-swatch" data-level="0" fill="#F3F5F7" d="M994 660h120v48H994Z"/>
    <path class="legend-border" fill="none" stroke="#2A3544" stroke-width="3" d="M994 418h120v292H994Z"/>
    <text x="1010" y="452">居住 5</text>
    <text x="1010" y="500">短居 4</text>
    <text x="1010" y="548">游玩 3</text>
    <text x="1010" y="596">落脚 2</text>
    <text x="1010" y="644">路过 1</text>
    <text x="1008" y="692">没去过</text>
  </g>
  <text id="credit" x="48" y="964">cn-ex</text>
</svg>
